<svg xmlns="http://www.w3.org/2000/svg" width="395" height="256.277" viewBox="0 0 395 256.277">
  <g id="Group_4995" data-name="Group 4995" transform="translate(155 4395)">
    <path id="Path_13506" data-name="Path 13506" d="M179.447,34.018a22.921,22.921,0,0,1,16.388,2.318c9.538,4.877,14.16,17.254,10.543,27.25a22.589,22.589,0,0,1-22.819,15.14c-11.982-.089-22.093-11.46-21.494-23.252a23.022,23.022,0,0,1,17.381-21.456Zm1.375,9.385c-8.29,2.547-12.212,13.485-6.9,20.5,5.5,8.4,20.106,6.749,23.328-2.9,4.431-9.83-6.341-21.176-16.426-17.6Z" transform="translate(-142.307 -4428.42)" fill="#faf9f7"/>
    <path id="Path_13507" data-name="Path 13507" d="M64.9,49.777C78.091,46.466,92.582,57.506,92.327,71.2c.815,9.13-5.2,17.827-13.345,21.571-4.546,2.19-9.8,2.139-14.682,1.273C54.19,91.658,46.474,81.548,47.1,71.119,47.149,61.021,55.043,51.827,64.9,49.777Zm2.177,9.155C60.468,59.951,55.693,66.84,56.52,73.36c.535,6.685,6.723,12.39,13.51,11.83,8.239.382,14.72-8.379,12.657-16.235A13.2,13.2,0,0,0,67.077,58.933Z" transform="translate(-173.738 -4424.111)" fill="#faf9f7"/>
    <path id="Path_13508" data-name="Path 13508" d="M295.247,49.663a22.73,22.73,0,0,1,20.17,38.85,21.443,21.443,0,0,1-15.917,6.15c-11.817.293-22.628-10.429-22.322-22.271C276.516,61.684,284.882,51.7,295.247,49.663ZM296,59.252c-10.034,2.47-12.8,17.381-4.228,23.213,7.462,6.367,20.463,1.019,21.24-8.786,1.617-9.168-8.264-17.394-16.948-14.427Z" transform="translate(-110.842 -4424.111)" fill="#faf9f7"/>
    <path id="Path_13509" data-name="Path 13509" d="M159.9,74.408c19.737-1.948,40.608-2.216,58.855,6.685,3.107,2.025,6.545.395,9.5-.993a85.314,85.314,0,0,1,23.455-6.278c31.21-2.126,64.216,2.547,90.638,20.374,5.093,2.954,9.206,7.424,14.313,10.187a87.747,87.747,0,0,1,38.965-1.515c8.6,1.719,17.611,5.9,21.864,14.007,4.686,8.914,2.177,21.431-6.367,27.059-4.953,3.018-10.9.649-15.739-1.413-11.893-5.526-22.411-13.472-32.916-21.214-2.725-1.872-5.093-4.406-8.15-5.679-14.542,5.717-25.213,17.967-34.381,30.141a77.79,77.79,0,0,0-15.675,58.409c4.151-3.387,7.042-7.946,10.187-12.186,5.093-7,9.97-14.249,15.764-20.743,3.069-3.285,6.456-6.8,11.015-7.831,3.26-.446,6.01,2.241,7.093,5.093,3.744,12.912-4.775,26.015-1.044,38.876,4.3-4.138,6.239-9.932,8.519-15.28a153.173,153.173,0,0,0,9.359-35.438c.662-3.451,4.444-3.336,7.156-3.031,1.146,1.961,2.394,4.113,1.8,6.494a152.065,152.065,0,0,1-13.243,44.1c-2.661,5.093-5.934,10.976-11.868,12.734-5.692,1.375-10.187-4.1-11.46-9.1-3.043-11.715,2.8-23.277,2.368-35.043-7.64,10.429-15.026,21.1-22.768,31.465a33.477,33.477,0,0,1-8.914,8.761c-3.222,1.757-7.78,1.643-10.352-1.21-2.865-3.107-3.476-7.5-3.82-11.524-1.044-18.782,3.413-38.01,13.8-53.787,10.06-14.937,22.182-29.16,38.29-37.768A97.361,97.361,0,0,0,329.689,97.6l.369-1.375A26.09,26.09,0,0,1,323,94.311l-.5-5.335c-.178,1.643-.331,3.273-.484,4.915-19.215-9.219-41.066-11.32-62.127-11.04-9.321-.076-18.476,2.267-27.161,5.475,3.183,3.171,7.118,5.45,10.378,8.544,14.771,13.128,26.651,30.561,29.86,50.349,3.171,19.419,2.547,39.78-3.744,58.575-2.368,6.163-5.348,13.689-12.288,15.764-5.947,1.732-11.333-2.84-14.007-7.64-6.367-10.976-8.6-23.672-11.091-35.947-1.515-7.016-1.9-14.427-5.093-21-1.159-3.145-5.488-2.916-7.908-1.553-3.82,5.908-4.151,13.256-5.539,20-2.547,12.581-4.8,25.531-10.722,37.055-2.725,4.928-7.64,10.645-13.892,9.308-6.163-.98-9.525-7.042-11.868-12.212-6.087-14.8-7.373-31.134-6.914-46.974.713-11.46,2.445-23.073,7.3-33.579a101.283,101.283,0,0,1,34.75-40.315,62.9,62.9,0,0,0-22.64-5.73c-23.685-.942-48.248,1.4-69.742,12.084a121.568,121.568,0,0,0-21.265,13.421,98.546,98.546,0,0,1,22.373,17.674c8.124,8.914,15.841,18.451,21.1,29.389,6.367,12.657,8.914,27,8.914,41.091-.216,4.928-.407,10.327-3.476,14.453-2.547,3.718-8.086,3.82-11.588,1.477a39.474,39.474,0,0,1-9.143-9.588c-5.781-7.984-11.6-15.942-17.292-23.99-1.273-1.6-2.3-3.718-4.635-3.986.407,11.142,5.335,22.258,2.228,33.362-1.273,4.711-5.437,9.525-10.76,8.608-5.832-1.273-9.13-6.889-11.766-11.753a158.891,158.891,0,0,1-13.23-41.384,28.574,28.574,0,0,1-.2-8.837,6.953,6.953,0,0,1,8.226,0c1.91,12.059,4.495,24.041,9.041,35.412,2.318,5.7,4.482,11.651,8.391,16.554,2.05-.191,1.413-2.9,1.834-4.317.407-11.116-4.661-22.067-2.292-33.184.777-4.52,6.112-7.64,10.187-5.017,7.309,4.253,11.97,11.6,17.05,18.12,5.628,7.271,10.187,15.484,17.025,21.736,1.846-7.92.688-16.121-.357-24.067-3.6-21.864-17.725-40.289-33.782-54.755-4.979-3.922-10.3-8.43-16.643-9.614-12.25,8.85-24.219,18.464-37.844,25.429-4.584,2.165-9.588,4.419-14.771,3.693-11.206-3.96-15.28-18.871-9.372-28.74,4.622-8.15,14.007-12,22.768-13.574a91.364,91.364,0,0,1,38.43,1.859C108.289,86.926,133.833,76.739,159.9,74.408Zm24.678,61.2c-5.093,13.358-5.87,28.014-5.093,42.11,1.082,10.3,2.19,20.921,6.7,30.382.955,1.643,1.923,4.151,4.291,3.705,2.076.166,2.687-2.088,3.616-3.476,7.4-15.013,8.761-31.936,12.5-48.031,1.63-5.743,3.82-12.937,10.187-14.911,5.3-.535,12.2-1.655,15.943,3.171,4.826,6.367,6,14.555,7.411,22.195,2.088,11.46,4.3,23.048,8.608,33.948a19.967,19.967,0,0,0,4.368,7.054c3.082.789,4.737-2.228,5.768-4.571,3.82-8.914,5.093-18.706,6.1-28.307,1.133-15.28.5-31.019-5.743-45.179A90.651,90.651,0,0,0,222.306,93.42c-16.515,9.678-30.319,24.436-37.73,42.187Zm-149.34-14.02c-2.547,5.2-.191,11.015,3.145,15.2,14.987-5.208,27.3-15.637,40.34-24.359-7.271-2.292-15.064-1.464-22.539-1.159C48.492,112.227,39.324,114.15,35.237,121.587ZM366.018,112.2c10.734,7.831,21.431,15.879,33.4,21.838a25.99,25.99,0,0,0,7.118,2.139c3.565-4.151,5.386-10.429,2.419-15.395-3.82-6.087-11.384-8.124-18.095-9.168-8.264-.942-16.707-1.273-24.818.586Z" transform="translate(-179.818 -4417.519)" fill="#faf9f7"/>
    <path id="Path_13510" data-name="Path 13510" d="M48.069,163.35H26.6v-3.68H48.069Zm0,7.335H26.6v-3.667H48.069Zm-5.679,9.181v52.806a6.532,6.532,0,0,0,1.643,4.355,5.717,5.717,0,0,0,1.8,1.273,4.928,4.928,0,0,0,2.19.5h4.126v9.627H48.031a12.733,12.733,0,0,1-5.6-1.273,14.911,14.911,0,0,1-4.61-3.387,15.93,15.93,0,0,1-3.107-5.093,16.375,16.375,0,0,1-1.133-6.138V179.866Z" transform="translate(-179.331 -4393.908)" fill="#f7931e"/>
    <path id="Path_13511" data-name="Path 13511" d="M43.61,221.82H63.538v9.627H43.61Z" transform="translate(-174.681 -4376.918)" fill="#f7931e"/>
    <path id="Path_13512" data-name="Path 13512" d="M56.2,221.82H76.128v9.627H56.2Z" transform="translate(-171.24 -4376.918)" fill="#f7931e"/>
    <path id="Path_13513" data-name="Path 13513" d="M68.79,221.82H88.731v9.627H68.79Z" transform="translate(-167.798 -4376.918)" fill="#f7931e"/>
    <path id="Path_13514" data-name="Path 13514" d="M81.38,221.82h19.89v9.627H81.38Z" transform="translate(-164.356 -4376.918)" fill="#f7931e"/>
    <path id="Path_13515" data-name="Path 13515" d="M94,221.82h19.941v9.627H94Z" transform="translate(-160.907 -4376.918)" fill="#f7931e"/>
    <path id="Path_13516" data-name="Path 13516" d="M106.56,221.82H126.5v9.627H106.56Z" transform="translate(-157.473 -4376.918)" fill="#f7931e"/>
    <path id="Path_13517" data-name="Path 13517" d="M119.15,221.82h19.941v9.627H119.15Z" transform="translate(-154.031 -4376.918)" fill="#f7931e"/>
    <path id="Path_13518" data-name="Path 13518" d="M131.74,221.82h19.941v9.627H131.74Z" transform="translate(-150.59 -4376.918)" fill="#f7931e"/>
    <path id="Path_13519" data-name="Path 13519" d="M144.33,221.82h19.954v9.627H144.33Z" transform="translate(-147.148 -4376.918)" fill="#f7931e"/>
    <path id="Path_13520" data-name="Path 13520" d="M215.091,239.978H157v-9.627h17.662a50.691,50.691,0,0,1-3.82-5.6,35.21,35.21,0,0,1-3.018-6.723,36.09,36.09,0,0,1-1.273-4.813,27.214,27.214,0,0,1-.446-4.864,22.92,22.92,0,0,1,1.019-6.851,14.237,14.237,0,0,1,3.374-5.654,16.4,16.4,0,0,1,6.163-3.82,27.582,27.582,0,0,1,9.423-1.4,27.926,27.926,0,0,1,9.538,1.426,16.388,16.388,0,0,1,6.2,3.82,14.249,14.249,0,0,1,3.362,5.7,22.92,22.92,0,0,1,1.031,6.927,26.868,26.868,0,0,1-.421,4.741,38.982,38.982,0,0,1-1.12,4.63,30.306,30.306,0,0,1-2.954,6.774,58.931,58.931,0,0,1-3.82,5.654h17.152ZM176.1,214.689a29.289,29.289,0,0,0,2.152,4.9,38.883,38.883,0,0,0,2.712,4.228,37.856,37.856,0,0,0,2.852,3.438c.942,1.006,1.8,1.846,2.547,2.547.739-.688,1.579-1.515,2.547-2.547a32.819,32.819,0,0,0,2.814-3.387,38.905,38.905,0,0,0,2.636-4.2,26.168,26.168,0,0,0,2.05-4.9,20.373,20.373,0,0,0,1.057-6.265,8.825,8.825,0,0,0-.573-3.183,6.507,6.507,0,0,0-1.91-2.636,9.907,9.907,0,0,0-3.476-1.783,18.617,18.617,0,0,0-5.31-.662,18.923,18.923,0,0,0-5.284.637,9.6,9.6,0,0,0-3.425,1.732,6.367,6.367,0,0,0-1.885,2.547,8.467,8.467,0,0,0-.573,3.107,16.921,16.921,0,0,0,.293,3.183,25.379,25.379,0,0,0,.777,3.247Z" transform="translate(-143.685 -4385.45)" fill="#f7931e"/>
    <path id="Path_13521" data-name="Path 13521" d="M199.55,221.82h19.941v9.627H199.55Z" transform="translate(-132.053 -4376.918)" fill="#f7931e"/>
    <path id="Path_13522" data-name="Path 13522" d="M212.14,221.82h19.941v9.627H212.14Z" transform="translate(-128.611 -4376.918)" fill="#f7931e"/>
    <path id="Path_13523" data-name="Path 13523" d="M224.73,221.82h19.941v9.627H224.73Z" transform="translate(-125.17 -4376.918)" fill="#f7931e"/>
    <path id="Path_13524" data-name="Path 13524" d="M237.32,221.82h19.966v9.627H237.32Z" transform="translate(-121.728 -4376.918)" fill="#f7931e"/>
    <path id="Path_13525" data-name="Path 13525" d="M249.92,221.82h19.928v9.627H249.92Z" transform="translate(-118.284 -4376.918)" fill="#f7931e"/>
    <path id="Path_13526" data-name="Path 13526" d="M262.51,221.82h19.928v9.627H262.51Z" transform="translate(-114.842 -4376.918)" fill="#f7931e"/>
    <path id="Path_13527" data-name="Path 13527" d="M275.1,221.82h19.928v9.627H275.1Z" transform="translate(-111.4 -4376.918)" fill="#f7931e"/>
    <path id="Path_13528" data-name="Path 13528" d="M287.69,230.349h9.7a23.96,23.96,0,0,1-.548-3.031,26.221,26.221,0,0,1-.191-3.183v-11a24.284,24.284,0,0,1,1.579-8.735,23.06,23.06,0,0,1,4.342-7.156,20.718,20.718,0,0,1,6.367-4.839,17.712,17.712,0,0,1,7.844-1.783,17.42,17.42,0,0,1,7.818,1.834,21.176,21.176,0,0,1,6.43,4.953,23.786,23.786,0,0,1,5.921,15.739v11.065a23.837,23.837,0,0,1-1.579,8.608,23.481,23.481,0,0,1-4.329,7.156,21.367,21.367,0,0,1-6.367,4.915,17.292,17.292,0,0,1-7.818,1.834,17.98,17.98,0,0,1-7.971-1.783,20.03,20.03,0,0,1-6.367-5H287.69Zm29.135-30.09a10.022,10.022,0,0,0-4.444,1.019,11.689,11.689,0,0,0-3.591,2.763,12.821,12.821,0,0,0-2.419,4.088,14.171,14.171,0,0,0-.879,5v11.078a14.352,14.352,0,0,0,.879,5.093,13.027,13.027,0,0,0,2.419,4.1,11.46,11.46,0,0,0,3.591,2.789,10.021,10.021,0,0,0,4.444,1.019,9.844,9.844,0,0,0,4.393-1.019,11.843,11.843,0,0,0,3.629-2.789,13.064,13.064,0,0,0,2.432-4.1,14.007,14.007,0,0,0,.879-4.953V213.133a13.753,13.753,0,0,0-.879-4.928,13.141,13.141,0,0,0-2.432-4.088,12.328,12.328,0,0,0-3.655-2.827A9.7,9.7,0,0,0,316.825,200.259Z" transform="translate(-107.959 -4385.448)" fill="#f7931e"/>
  </g>
</svg>
