<svg xmlns="http://www.w3.org/2000/svg" xmlns:xlink="http://www.w3.org/1999/xlink" width="66" height="67" viewBox="0 0 66 67">
  <defs>
    <clipPath id="clip-iPhone_X_XS_11_Pro_3">
      <rect width="66" height="67"/>
    </clipPath>
  </defs>
  <g id="iPhone_X_XS_11_Pro_3" data-name="iPhone X, XS, 11 Pro – 3" clip-path="url(#clip-iPhone_X_XS_11_Pro_3)">
    <rect width="66" height="67" fill="rgba(255,255,255,0)"/>
    <g id="Group_11" data-name="Group 11" transform="translate(-125.315 -8)">
      <g id="Group_9" data-name="Group 9" transform="translate(-188.35 -38.378)">
        <path id="Path_26" data-name="Path 26" d="M370.348,250.173a8.639,8.639,0,0,0,12.327-6.815h-5.814a3.232,3.232,0,0,1-.129.307,2.929,2.929,0,1,1-5.078-2.892l-3.615-4.534a8.634,8.634,0,0,0,2.309,13.934Z" transform="translate(-37.744 -140.207)" fill="#fff"/>
        <path id="Path_27" data-name="Path 27" d="M457.709,243.2a2.93,2.93,0,0,1-5.405-.307h-5.815a8.634,8.634,0,1,0,14.472-7.274l-3.589,4.5A2.932,2.932,0,0,1,457.709,243.2Z" transform="translate(-98.397 -139.745)" fill="#fff"/>
        <path id="Path_28" data-name="Path 28" d="M315.9,167.922a8.62,8.62,0,0,0,4.026,11.507,8.656,8.656,0,0,0,3.76.864,8.562,8.562,0,0,0,4.613-1.355l-3.62-4.539a2.916,2.916,0,1,1-.854-5.647l1.276-5.591A8.613,8.613,0,0,0,315.9,167.922Z" transform="translate(0 -85.414)" fill="#fff"/>
        <path id="Path_29" data-name="Path 29" d="M345.447,85.126a8.62,8.62,0,0,0-7.481,15.533,8.168,8.168,0,0,0,1.331.5l1.274-5.581c-.046-.018-.09-.036-.13-.055a2.916,2.916,0,1,1,3.856-3.964l5.14-2.475A8.563,8.563,0,0,0,345.447,85.126Z" transform="translate(-13.506 -26.448)" fill="#fff"/>
        <path id="Path_30" data-name="Path 30" d="M497.74,96.737a8.621,8.621,0,0,0-4.026-11.507,8.71,8.71,0,0,0-9.275,1.118,8.6,8.6,0,0,0-2.219,2.943l5.138,2.475a2.971,2.971,0,0,1,.3-.546,2.916,2.916,0,0,1,4.94,3.042,2.791,2.791,0,0,1-1.763,1.494l1.275,5.588A8.66,8.66,0,0,0,497.74,96.737Z" transform="translate(-125.144 -26.528)" fill="#fff"/>
        <path id="Path_31" data-name="Path 31" d="M411.85,58.509a2.915,2.915,0,1,1,5.383.316c-.015.032-.034.066-.051.1l5.141,2.476.05-.1a8.62,8.62,0,1,0-15.541-.024L411.97,58.8C411.924,58.7,411.882,58.6,411.85,58.509Z" transform="translate(-68.084)" fill="#fff"/>
        <path id="Path_32" data-name="Path 32" d="M520.452,164.012a8.832,8.832,0,0,0-5.081-.726c-.116.017-.237.039-.361.065l1.268,5.555a2.822,2.822,0,0,1,1.7.246,2.915,2.915,0,0,1-2.493,5.269l-3.592,4.5a8.62,8.62,0,1,0,8.56-14.913Z" transform="translate(-147.355 -85.523)" fill="#fff"/>
        <path id="Path_33" data-name="Path 33" d="M355.961,165.477a27.747,27.747,0,0,0-2.994-1.35,8.638,8.638,0,0,0-2.021-.606l-1.276,5.591c-.033,0-.066,0-.1,0a2.885,2.885,0,0,1,.607.075,22.32,22.32,0,0,1,2.521,1.037A17.079,17.079,0,0,0,355.961,165.477Z" transform="translate(-25.848 -85.774)" fill="#fff"/>
        <path id="Path_34" data-name="Path 34" d="M382.825,99.829l-5.14,2.475a2.964,2.964,0,0,1,.255.7c.049.221.3.818.558,1.956a17.13,17.13,0,0,0,5.736-.436,26.015,26.015,0,0,0-1.032-3.811,8.583,8.583,0,0,0-1.094-2.087A8.578,8.578,0,0,1,382.825,99.829Z" transform="translate(-46.894 -37.197)" fill="#fff"/>
        <path id="Path_35" data-name="Path 35" d="M501.627,135.573a27.013,27.013,0,0,0,3.134-.077,8.585,8.585,0,0,0,1.875-.27l-1.275-5.588h0a3.868,3.868,0,0,1-.9.157c-.118.007-1.032.043-1.975.053A17.133,17.133,0,0,0,501.627,135.573Z" transform="translate(-139.668 -60.41)" fill="#fff"/>
        <path id="Path_36" data-name="Path 36" d="M377.328,226.091a8.6,8.6,0,0,0-1.614,1.248l3.615,4.534a2.913,2.913,0,0,1,.854-.84,21.829,21.829,0,0,1,2.123-1.163,17.142,17.142,0,0,0-1.653-5.52A27.815,27.815,0,0,0,377.328,226.091Z" transform="translate(-45.419 -131.306)" fill="#fff"/>
        <path id="Path_37" data-name="Path 37" d="M446.328,247.429h5.815a2.9,2.9,0,0,1-.162-.866,22.1,22.1,0,0,1,.458-2.795,17.13,17.13,0,0,0-5.361-2.09,27.92,27.92,0,0,0-.656,3.307,6.631,6.631,0,0,0-.147,1.493,8.658,8.658,0,0,0,.175,1.719Q446.372,247.817,446.328,247.429Z" transform="translate(-98.236 -144.278)" fill="#fff"/>
        <path id="Path_38" data-name="Path 38" d="M446.047,88.653a13.874,13.874,0,0,1-1.495,2.194,17.15,17.15,0,0,0,3.915,4.216,20.286,20.286,0,0,0,2.77-4.033l-.05.1Z" transform="translate(-96.948 -29.731)" fill="#fff"/>
        <path id="Path_39" data-name="Path 39" d="M504.369,201.214l-.038-.016a8.929,8.929,0,0,1-2.275-2.219,17.1,17.1,0,0,0-5.012,2.849,23.263,23.263,0,0,0,2.793,3.156,8.6,8.6,0,0,0,.94.733Z" transform="translate(-136.241 -112.316)" fill="#fff"/>
        <path id="Path_40" data-name="Path 40" d="M474.821,115.284a28.142,28.142,0,0,0,2.15,9.418v0a56.208,56.208,0,0,1,4.8-3.416,22.051,22.051,0,0,1-.962-3.707,21.421,21.421,0,0,1,1.007-11.173l-5.138-2.474c-.03.064-.058.124-.082.177a23.332,23.332,0,0,0-1.453,5.3C475.185,109.117,474.739,113.165,474.821,115.284Z" transform="translate(-119.598 -41.167)" fill="#fff"/>
        <path id="Path_41" data-name="Path 41" d="M436.908,223.551h0c.223.131.4.238.535.313a2.909,2.909,0,0,1,.884.755v0l3.589-4.5.007.007a8.483,8.483,0,0,0-.9-.736,24.315,24.315,0,0,0-4.655-2.444c-.737-.311-5.663-1.617-5.663-1.617a28.135,28.135,0,0,0-9.657,0s1.9,4.079,2.266,5.436a21.965,21.965,0,0,1,11.277,1.623A18.5,18.5,0,0,1,436.908,223.551Z" transform="translate(-79.351 -124.24)" fill="#fff"/>
        <path id="Path_42" data-name="Path 42" d="M374.136,116.854a21.9,21.9,0,0,1-3.482,1.8,21.486,21.486,0,0,1-6.733,1.593v.006a14.967,14.967,0,0,1-4.88-.3l.035.015-1.273,5.579a16.469,16.469,0,0,0,4.421.473c.6,0,1.2-.022,1.8-.061a49.789,49.789,0,0,0,5.8-1,28.025,28.025,0,0,0,8.7-4.189A34.177,34.177,0,0,1,374.136,116.854Z" transform="translate(-32.012 -50.841)" fill="#fff"/>
        <path id="Path_43" data-name="Path 43" d="M359.868,154.2a22.02,22.02,0,0,1-5.138,8.751h0c-.1.1-.192.2-.29.3a2.919,2.919,0,0,1-1.076.7l3.62,4.539a8.478,8.478,0,0,0,1.437-1.15,28.277,28.277,0,0,0,3.087-3.694,42.018,42.018,0,0,0,2.849-5.149,27.913,27.913,0,0,0,2.155-9.413,49.789,49.789,0,0,1-5.8,1A21.257,21.257,0,0,1,359.868,154.2Z" transform="translate(-28.688 -74.969)" fill="#fff"/>
        <path id="Path_44" data-name="Path 44" d="M425.712,97.608a23.474,23.474,0,0,1-3.378-1.485,21.29,21.29,0,0,1-5.637-4.386l0,0a17.417,17.417,0,0,1-2.636-3.569l-5.138,2.474c-.279-.587-.121-.143.328.629a22.982,22.982,0,0,0,3.047,4.11,34.177,34.177,0,0,0,4.4,3.916,28.037,28.037,0,0,0,8.7,4.189C425.312,101.368,425.758,97.321,425.712,97.608Z" transform="translate(-70.171 -29.37)" fill="#fff"/>
        <path id="Path_45" data-name="Path 45" d="M388.6,186.518a42.018,42.018,0,0,1-2.849,5.149,22.345,22.345,0,0,1,3.212,4.024h0a21.809,21.809,0,0,1,3.138,8.484.058.058,0,0,1,0,.009,3.689,3.689,0,0,1-.048,1.952h5.814a8.62,8.62,0,0,0-.056-2.328,27.8,27.8,0,0,0-.694-3.506c-.093-.329-.17-.6-.221-.794-.366-1.357-2.266-5.436-2.266-5.436A28.147,28.147,0,0,0,388.6,186.518Z" transform="translate(-52.93 -102.987)" fill="#fff"/>
        <g id="Group_8" data-name="Group 8" transform="translate(351.351 77.768)">
          <path id="Path_46" data-name="Path 46" d="M525.53,163.6h0l-.023,0Z" transform="translate(-508.897 -163.604)" fill="#fff"/>
          <path id="Path_47" data-name="Path 47" d="M476.529,169.522a2.9,2.9,0,0,1,.5-.128h-.008l-1.268-5.555a20.138,20.138,0,0,0-5.486,2.29,56.205,56.205,0,0,0-4.8,3.416v0a28.139,28.139,0,0,0-6.022,7.55s4.926,1.306,5.663,1.617a22.324,22.324,0,0,1,9.51-8.413Q475.555,169.869,476.529,169.522Z" transform="translate(-459.451 -163.781)" fill="#fff"/>
        </g>
      </g>
    </g>
  </g>
</svg>
