<svg xmlns="http://www.w3.org/2000/svg" xmlns:xlink="http://www.w3.org/1999/xlink" width="350" height="87" viewBox="0 0 350 87">
  <defs>
    <clipPath id="clip-path">
      <rect id="Rectangle_2" data-name="Rectangle 2" width="351" height="88" transform="translate(36)"/>
    </clipPath>
    <clipPath id="clip-Web_1920_1">
      <rect width="350" height="87"/>
    </clipPath>
  </defs>
  <g id="Web_1920_1" data-name="Web 1920 – 1" clip-path="url(#clip-Web_1920_1)">
    <rect width="350" height="87" fill="rgba(255,255,255,0)"/>
    <g id="Web_1920_1-2" data-name="Web 1920 – 1" transform="translate(-36)" clip-path="url(#clip-path)">
      <rect id="Rectangle_1" data-name="Rectangle 1" width="387" height="88" fill="rgba(255,255,255,0)"/>
      <g id="Group_4" data-name="Group 4" transform="translate(193)">
        <rect id="Rectangle_1-2" data-name="Rectangle 1" width="200" height="81" fill="rgba(255,255,255,0)"/>
        <path id="تكافل" d="M31.724-1.232a1.5,1.5,0,0,1-.286.792,1,1,0,0,1-.9.44H29.128a6.045,6.045,0,0,1-2.42-.44,5.346,5.346,0,0,1-1.672-1.1A12.635,12.635,0,0,1,23.76,2.9a11.39,11.39,0,0,1-2.64,3.41,11.473,11.473,0,0,1-3.828,2.2,14.566,14.566,0,0,1-4.84.77A15.218,15.218,0,0,1,6.446,8.25,10.42,10.42,0,0,1,2.618,5.566,9.729,9.729,0,0,1,.594,1.87,14.394,14.394,0,0,1,0-2.156a13.512,13.512,0,0,1,.726-4.29,14.413,14.413,0,0,1,2.09-4.026L7.04-8.052a10.883,10.883,0,0,0-1.452,2.97,10.189,10.189,0,0,0-.44,2.926,7.212,7.212,0,0,0,.33,2.068A5.436,5.436,0,0,0,6.644,1.958,6.465,6.465,0,0,0,8.932,3.542a9.236,9.236,0,0,0,3.7.638,9.821,9.821,0,0,0,2.794-.4A6.6,6.6,0,0,0,17.8,2.53,6.35,6.35,0,0,0,19.47.33a7.368,7.368,0,0,0,.638-3.19V-31.5H25.08V-9.152a4.067,4.067,0,0,0,1.012,3.146,4.225,4.225,0,0,0,2.9.9h1.54a1.021,1.021,0,0,1,.9.352,1.723,1.723,0,0,1,.286.836ZM52.8,0H30.272a1.085,1.085,0,0,1-.924-.352,1.287,1.287,0,0,1-.264-.792v-2.6a1.669,1.669,0,0,1,.286-.924,1,1,0,0,1,.9-.44h5.764a6.675,6.675,0,0,1-.748-1.606,8.8,8.8,0,0,1-.4-2.882,9.194,9.194,0,0,1,.7-3.52,9.533,9.533,0,0,1,1.98-3.036,9.882,9.882,0,0,1,3.08-2.134,9.625,9.625,0,0,1,4-.814,8.829,8.829,0,0,1,3.388.616A7.24,7.24,0,0,1,50.6-16.742a7.715,7.715,0,0,1,1.628,2.706,10.3,10.3,0,0,1,.572,3.52ZM47.74-5.1v-5.632a4.006,4.006,0,0,0-.2-1.232A3.179,3.179,0,0,0,46.9-13.09a3.213,3.213,0,0,0-1.122-.814,3.874,3.874,0,0,0-1.606-.308,4.036,4.036,0,0,0-1.606.33,4.317,4.317,0,0,0-1.364.924,4.728,4.728,0,0,0-.968,1.43,4.586,4.586,0,0,0-.374,1.892A4.243,4.243,0,0,0,40.5-7.15a5.176,5.176,0,0,0,1.386,1.386,4.716,4.716,0,0,0,2.024.66ZM41.932-24.376a2.424,2.424,0,0,1,.77-1.8,2.584,2.584,0,0,1,1.87-.748,2.639,2.639,0,0,1,1.914.748,2.424,2.424,0,0,1,.77,1.8,2.424,2.424,0,0,1-.77,1.8,2.639,2.639,0,0,1-1.914.748,2.584,2.584,0,0,1-1.87-.748A2.424,2.424,0,0,1,41.932-24.376ZM59.18-31.5H64.2V-5.1h2.992a1.143,1.143,0,0,1,.968.352,1.354,1.354,0,0,1,.264.836v2.684a1.429,1.429,0,0,1-.308.792,1.053,1.053,0,0,1-.924.44H59.18ZM66.968,0a1.085,1.085,0,0,1-.924-.352,1.287,1.287,0,0,1-.264-.792v-2.6a1.669,1.669,0,0,1,.286-.924,1,1,0,0,1,.9-.44H78.716A1.468,1.468,0,0,0,80.1-5.676a3.292,3.292,0,0,0,.33-1.628A30.958,30.958,0,0,0,80.3-10.45a4.2,4.2,0,0,0-.66-2,2.814,2.814,0,0,0-1.54-1.056,9.894,9.894,0,0,0-2.772-.308H69.784V-18.26L78.32-31.812l4.136,2.772L75.724-18.7H76.3a13.858,13.858,0,0,1,3.7.462,7.25,7.25,0,0,1,2.882,1.518,6.871,6.871,0,0,1,1.87,2.772A11.97,11.97,0,0,1,85.4-9.68a5.285,5.285,0,0,0,1.012,3.542A3.854,3.854,0,0,0,89.364-5.1h1.628a1.03,1.03,0,0,1,.88.352,1.354,1.354,0,0,1,.264.836v2.684a1.5,1.5,0,0,1-.286.792.955.955,0,0,1-.858.44h-1.76a4.83,4.83,0,0,1-3.058-.88,6.665,6.665,0,0,1-1.738-1.98,5.319,5.319,0,0,1-2.2,2.09A6.657,6.657,0,0,1,79.068,0ZM90.64,0a1.029,1.029,0,0,1-.88-.352,1.287,1.287,0,0,1-.264-.792v-2.6a1.669,1.669,0,0,1,.286-.924.955.955,0,0,1,.858-.44h6.028V-17.512h5.016V0Zm2.288-24.376a2.459,2.459,0,0,1,.748-1.8,2.564,2.564,0,0,1,1.892-.748,2.564,2.564,0,0,1,1.892.748,2.459,2.459,0,0,1,.748,1.8,2.459,2.459,0,0,1-.748,1.8,2.564,2.564,0,0,1-1.892.748,2.564,2.564,0,0,1-1.892-.748A2.459,2.459,0,0,1,92.928-24.376Zm6.864,0a2.459,2.459,0,0,1,.748-1.8,2.564,2.564,0,0,1,1.892-.748,2.564,2.564,0,0,1,1.892.748,2.459,2.459,0,0,1,.748,1.8,2.459,2.459,0,0,1-.748,1.8,2.564,2.564,0,0,1-1.892.748,2.564,2.564,0,0,1-1.892-.748A2.459,2.459,0,0,1,99.792-24.376Z" transform="translate(9 42)" fill="#212832"/>
        <path id="تكافل-2" data-name="تكافل" d="M9-9.482a3.135,3.135,0,0,0-1.037.169,2.051,2.051,0,0,0-.847.561A2.815,2.815,0,0,0,6.54-7.736,4.823,4.823,0,0,0,6.329-6.2v2.413h2.54a5.96,5.96,0,0,0,1.281-.116,1.582,1.582,0,0,0,.815-.423,1.777,1.777,0,0,0,.423-.847,6.106,6.106,0,0,0,.127-1.365,3.253,3.253,0,0,0-.656-2.17A2.309,2.309,0,0,0,9-9.482Zm7.133,5.736q.487,0,.487.381v.825q0,.508-.487.508h-.55a5.087,5.087,0,0,1-.857-.074,2.712,2.712,0,0,1-.815-.275,2.339,2.339,0,0,1-.688-.561,2.518,2.518,0,0,1-.476-.931,3.731,3.731,0,0,1-.836.974,3.479,3.479,0,0,1-.984.55A4.831,4.831,0,0,1,9.779-2.1a12.78,12.78,0,0,1-1.312.063H3.556a1.805,1.805,0,0,0-1.429.519A2.936,2.936,0,0,0,1.672.381v5.08H0V-.254A3.476,3.476,0,0,1,.942-2.889a3.365,3.365,0,0,1,2.424-.9H4.614V-6.434A5.392,5.392,0,0,1,4.9-8.17a4.505,4.505,0,0,1,.847-1.5,4.307,4.307,0,0,1,1.365-1.058,4.015,4.015,0,0,1,1.82-.4,4.516,4.516,0,0,1,1.789.339,3.93,3.93,0,0,1,1.355.942,4.092,4.092,0,0,1,.857,1.439,5.38,5.38,0,0,1,.3,1.81v.614a4.607,4.607,0,0,0,.053.593,1.744,1.744,0,0,0,.3.741,2.137,2.137,0,0,0,.72.635,2.657,2.657,0,0,0,1.323.275Zm7.408-5.5a3.733,3.733,0,0,0-2.582,1.492,5.7,5.7,0,0,0-.974,3.524v.487h3.556Zm1.418,5.5h3.514V-4.826a5.591,5.591,0,0,0-.265-1.81,3.834,3.834,0,0,0-.741-1.312,3.791,3.791,0,0,0-1.111-.868,4.709,4.709,0,0,0-1.4-.455ZM15.832-2.032q-.487,0-.487-.381v-.825q0-.508.487-.508h2.6a9.273,9.273,0,0,1,.37-2.688,7.01,7.01,0,0,1,1.037-2.138,5.545,5.545,0,0,1,1.609-1.482,5.28,5.28,0,0,1,2.085-.72v-1.312h1.418v1.312a6.613,6.613,0,0,1,2.318.656,4.88,4.88,0,0,1,1.619,1.312,5.4,5.4,0,0,1,.942,1.863,8.257,8.257,0,0,1,.307,2.307v2.6ZM43.094-3.746q.487,0,.487.381v.825q0,.508-.487.508h-.529a4.548,4.548,0,0,1-.825-.074A2.378,2.378,0,0,1,41-2.37a1.863,1.863,0,0,1-.593-.54,2.455,2.455,0,0,1-.381-.9,2.158,2.158,0,0,1-.4.8,2.35,2.35,0,0,1-.635.55,2.943,2.943,0,0,1-.783.317,3.4,3.4,0,0,1-.825.106H32.533V-3.746h4.657a1.237,1.237,0,0,0,1.048-.381,1.981,1.981,0,0,0,.286-1.185q0-1.016-.074-1.778a2.748,2.748,0,0,0-.392-1.249,1.915,1.915,0,0,0-.931-.73,4.729,4.729,0,0,0-1.693-.243H33.739v-1.63h2.2a5.2,5.2,0,0,1,2.011.339,3.28,3.28,0,0,1,1.291.931,3.62,3.62,0,0,1,.7,1.4,6.891,6.891,0,0,1,.212,1.757,3.169,3.169,0,0,0,.582,2.085,2.325,2.325,0,0,0,1.873.688Zm-.3,1.714q-.487,0-.487-.381v-.825q0-.508.487-.508h1.82a1.106,1.106,0,0,0,1.027-.434,2.246,2.246,0,0,0,.265-1.175v-4.72h1.672v3.831a3.963,3.963,0,0,0,.116.984,1.969,1.969,0,0,0,.4.794,1.905,1.905,0,0,0,.751.529,3.025,3.025,0,0,0,1.143.19h.466q.487,0,.487.381v.825q0,.508-.487.508h-.529a3.275,3.275,0,0,1-1.63-.381,2.008,2.008,0,0,1-.931-1.27,3.57,3.57,0,0,1-.508.857,1.974,1.974,0,0,1-.6.5,2.393,2.393,0,0,1-.709.233,4.89,4.89,0,0,1-.8.063Zm2.984-12.086a.938.938,0,0,1,.286-.688.938.938,0,0,1,.688-.286.938.938,0,0,1,.688.286.938.938,0,0,1,.286.688.938.938,0,0,1-.286.688.938.938,0,0,1-.688.286.938.938,0,0,1-.688-.286A.938.938,0,0,1,45.783-14.118ZM50.164-2.032q-.487,0-.487-.381v-.825q0-.508.487-.508h3.408a4.183,4.183,0,0,1-.836-.815,4.1,4.1,0,0,1-.519-.889,4.52,4.52,0,0,1-.275-.9,4.529,4.529,0,0,1-.085-.847,4.24,4.24,0,0,1,.254-1.46,3.523,3.523,0,0,1,.783-1.249,3.771,3.771,0,0,1,1.365-.878,5.474,5.474,0,0,1,2-.328q.423,0,.921.042t1.069.106q-.042.487-.085.868t-.106.825q-.423-.063-.762-.1T56.535-9.4a3.177,3.177,0,0,0-2.18.677,2.314,2.314,0,0,0-.762,1.82,2.75,2.75,0,0,0,.328,1.355,2.9,2.9,0,0,0,.889.984,4.375,4.375,0,0,0,1.281.6,5.375,5.375,0,0,0,1.524.212h1.524v1.714ZM67.393-17.208h1.672V-3.746h1.651q.487,0,.487.381v.825q0,.508-.487.508H67.393ZM76.96-3.619a2.715,2.715,0,0,0,1.111-.212,2.167,2.167,0,0,0,.783-.571,2.346,2.346,0,0,0,.455-.836,3.439,3.439,0,0,0,.148-1.027,3.459,3.459,0,0,0-.212-1.249,3.035,3.035,0,0,0-.561-.942,2.462,2.462,0,0,0-.8-.6,2.164,2.164,0,0,0-.921-.212,2.327,2.327,0,0,0-.974.212,2.43,2.43,0,0,0-.815.6,2.884,2.884,0,0,0-.55.942,3.623,3.623,0,0,0-.2,1.249,3.439,3.439,0,0,0,.148,1.027,2.346,2.346,0,0,0,.455.836,2.167,2.167,0,0,0,.783.571A2.831,2.831,0,0,0,76.96-3.619ZM70.42-2.032q-.487,0-.487-.381v-.825q0-.508.487-.508h.55q1.82,0,1.82-2.54a5.117,5.117,0,0,1,.317-1.831,4.359,4.359,0,0,1,.878-1.439A3.982,3.982,0,0,1,75.32-10.5,4.145,4.145,0,0,1,77-10.837a4.158,4.158,0,0,1,1.767.349,3.455,3.455,0,0,1,1.249.963,4.071,4.071,0,0,1,.741,1.471A6.922,6.922,0,0,1,81-6.159a5.633,5.633,0,0,1-.212,1.535A3.741,3.741,0,0,1,80.1-3.281a3.443,3.443,0,0,1-1.238.952A4.341,4.341,0,0,1,77-1.968a6.821,6.821,0,0,1-.9-.063,3.974,3.974,0,0,1-.952-.254,3.577,3.577,0,0,1-.921-.55A3.844,3.844,0,0,1,73.4-3.81a2.862,2.862,0,0,1-.995,1.365,2.671,2.671,0,0,1-1.524.413Zm32.13-1.714q.487,0,.487.381v.825q0,.508-.487.508h-.381q-.381,0-.741-.032a2.506,2.506,0,0,1-.688-.159,1.893,1.893,0,0,1-.6-.381,2.324,2.324,0,0,1-.487-.677,6.766,6.766,0,0,1-.444,2.529,5.268,5.268,0,0,1-1.238,1.873,5.347,5.347,0,0,1-1.894,1.164,6.982,6.982,0,0,1-2.413.4A7.237,7.237,0,0,1,90.814,2.2,4.9,4.9,0,0,1,89,.931,4.569,4.569,0,0,1,88.052-.8a6.763,6.763,0,0,1-.275-1.884A7.2,7.2,0,0,1,88.041-4.6a5.578,5.578,0,0,1,.836-1.767q.381.233.709.4t.709.4A5.4,5.4,0,0,0,89.7-4.148a5.848,5.848,0,0,0-.19,1.46A4.139,4.139,0,0,0,89.7-1.5a3.217,3.217,0,0,0,.667,1.185,3.679,3.679,0,0,0,1.3.921,5.138,5.138,0,0,0,2.1.37A5.4,5.4,0,0,0,95.354.741a3.911,3.911,0,0,0,1.355-.72,3.546,3.546,0,0,0,.952-1.249,4.231,4.231,0,0,0,.36-1.82v-14.16h1.63V-6.244a2.461,2.461,0,0,0,.646,1.937,2.672,2.672,0,0,0,1.81.561Zm-.3,1.714q-.487,0-.487-.381v-.825q0-.508.487-.508h7.006V-6.329a3.791,3.791,0,0,0-.243-1.5,1.767,1.767,0,0,0-.667-.815,2.423,2.423,0,0,0-.974-.339,8.9,8.9,0,0,0-1.185-.074h-2.286v-1.693q1.037-1.651,2-3.217t2.043-3.217q.423.275.7.476t.656.455l-3.619,5.588h1.037a6.793,6.793,0,0,1,1.566.18,3.433,3.433,0,0,1,1.344.635,3.236,3.236,0,0,1,.942,1.259,5.115,5.115,0,0,1,.36,2.074v4.487Zm19.2-2.413a1.225,1.225,0,0,1,.9.37,1.225,1.225,0,0,1,.37.9,1.192,1.192,0,0,1-.392.9,1.247,1.247,0,0,1-.878.37,1.247,1.247,0,0,1-.878-.37,1.192,1.192,0,0,1-.392-.9,1.225,1.225,0,0,1,.37-.9A1.225,1.225,0,0,1,121.452-4.445Zm7.048,0a1.225,1.225,0,0,1,.9.37,1.225,1.225,0,0,1,.37.9,1.192,1.192,0,0,1-.392.9,1.247,1.247,0,0,1-.878.37,1.247,1.247,0,0,1-.878-.37,1.192,1.192,0,0,1-.392-.9,1.225,1.225,0,0,1,.37-.9A1.225,1.225,0,0,1,128.5-4.445Zm7.048,0a1.225,1.225,0,0,1,.9.37,1.225,1.225,0,0,1,.37.9,1.192,1.192,0,0,1-.392.9,1.247,1.247,0,0,1-.878.37,1.247,1.247,0,0,1-.878-.37,1.192,1.192,0,0,1-.392-.9,1.225,1.225,0,0,1,.37-.9A1.225,1.225,0,0,1,135.549-4.445Zm18.034-5.038a3.135,3.135,0,0,0-1.037.169,2.051,2.051,0,0,0-.847.561,2.814,2.814,0,0,0-.571,1.016,4.823,4.823,0,0,0-.212,1.535v2.413h2.54a5.96,5.96,0,0,0,1.281-.116,1.582,1.582,0,0,0,.815-.423,1.776,1.776,0,0,0,.423-.847A6.106,6.106,0,0,0,156.1-6.54a3.253,3.253,0,0,0-.656-2.17A2.309,2.309,0,0,0,153.582-9.482Zm7.133,5.736q.487,0,.487.381v.825q0,.508-.487.508h-.55a5.087,5.087,0,0,1-.857-.074,2.712,2.712,0,0,1-.815-.275,2.339,2.339,0,0,1-.688-.561,2.518,2.518,0,0,1-.476-.931,3.731,3.731,0,0,1-.836.974,3.479,3.479,0,0,1-.984.55,4.831,4.831,0,0,1-1.143.254,12.78,12.78,0,0,1-1.312.063h-4.911a1.805,1.805,0,0,0-1.429.519,2.936,2.936,0,0,0-.455,1.894v5.08h-1.672V-.254a3.476,3.476,0,0,1,.942-2.635,3.365,3.365,0,0,1,2.424-.9H149.2V-6.434a5.392,5.392,0,0,1,.286-1.736,4.506,4.506,0,0,1,.847-1.5,4.308,4.308,0,0,1,1.365-1.058,4.015,4.015,0,0,1,1.82-.4,4.516,4.516,0,0,1,1.789.339,3.931,3.931,0,0,1,1.355.942,4.092,4.092,0,0,1,.857,1.439,5.38,5.38,0,0,1,.3,1.81v.614a4.607,4.607,0,0,0,.053.593,1.744,1.744,0,0,0,.3.741,2.137,2.137,0,0,0,.72.635,2.658,2.658,0,0,0,1.323.275Zm-.3,1.714q-.487,0-.487-.381v-.825q0-.508.487-.508h7.006V-6.329a3.791,3.791,0,0,0-.243-1.5,1.767,1.767,0,0,0-.667-.815,2.423,2.423,0,0,0-.974-.339,8.9,8.9,0,0,0-1.185-.074H162.07v-1.693q1.037-1.651,2-3.217t2.043-3.217q.423.275.7.476t.656.455l-3.619,5.588h1.037a6.793,6.793,0,0,1,1.566.18,3.433,3.433,0,0,1,1.344.635,3.236,3.236,0,0,1,.942,1.259,5.114,5.114,0,0,1,.36,2.074v4.487Zm21.632-1.714q.487,0,.487.381v.825q0,.508-.487.508h-.529a4.548,4.548,0,0,1-.825-.074,2.378,2.378,0,0,1-.741-.265,1.863,1.863,0,0,1-.593-.54,2.455,2.455,0,0,1-.381-.9,2.158,2.158,0,0,1-.4.8,2.35,2.35,0,0,1-.635.55,2.943,2.943,0,0,1-.783.317,3.4,3.4,0,0,1-.825.106h-4.847V-3.746h4.657a1.237,1.237,0,0,0,1.048-.381,1.981,1.981,0,0,0,.286-1.185q0-1.016-.074-1.778a2.748,2.748,0,0,0-.392-1.249,1.915,1.915,0,0,0-.931-.73,4.729,4.729,0,0,0-1.693-.243H172.7v-1.63h2.2a5.2,5.2,0,0,1,2.011.339,3.28,3.28,0,0,1,1.291.931,3.62,3.62,0,0,1,.7,1.4,6.891,6.891,0,0,1,.212,1.757,3.169,3.169,0,0,0,.582,2.085,2.325,2.325,0,0,0,1.873.688Zm-.3,1.714q-.487,0-.487-.381v-.825q0-.508.487-.508h1.82A1.106,1.106,0,0,0,184.6-4.18a2.246,2.246,0,0,0,.265-1.175v-4.72h1.672v3.831a3.963,3.963,0,0,0,.116.984,1.969,1.969,0,0,0,.4.794,1.905,1.905,0,0,0,.751.529,3.025,3.025,0,0,0,1.143.19h.466q.487,0,.487.381v.825q0,.508-.487.508h-.529a3.275,3.275,0,0,1-1.63-.381,2.008,2.008,0,0,1-.931-1.27,3.571,3.571,0,0,1-.508.857,1.974,1.974,0,0,1-.6.5,2.393,2.393,0,0,1-.709.233,4.89,4.89,0,0,1-.8.063Zm2.984-12.086a.938.938,0,0,1,.286-.688.938.938,0,0,1,.688-.286.938.938,0,0,1,.688.286.938.938,0,0,1,.286.688.938.938,0,0,1-.286.688.938.938,0,0,1-.688.286.938.938,0,0,1-.688-.286A.938.938,0,0,1,184.739-14.118ZM189.12-2.032q-.487,0-.487-.381v-.825q0-.508.487-.508h3.408a4.183,4.183,0,0,1-.836-.815,4.1,4.1,0,0,1-.519-.889,4.521,4.521,0,0,1-.275-.9,4.528,4.528,0,0,1-.085-.847,4.24,4.24,0,0,1,.254-1.46,3.523,3.523,0,0,1,.783-1.249,3.771,3.771,0,0,1,1.365-.878,5.474,5.474,0,0,1,2-.328q.423,0,.921.042t1.069.106q-.042.487-.085.868t-.106.825q-.423-.063-.762-.1t-.762-.032a3.177,3.177,0,0,0-2.18.677,2.314,2.314,0,0,0-.762,1.82,2.75,2.75,0,0,0,.328,1.355,2.9,2.9,0,0,0,.889.984,4.374,4.374,0,0,0,1.281.6,5.374,5.374,0,0,0,1.524.212h1.524v1.714ZM206.35-17.208h1.672V-3.746h1.651q.487,0,.487.381v.825q0,.508-.487.508H206.35Zm9.567,13.589a2.715,2.715,0,0,0,1.111-.212,2.167,2.167,0,0,0,.783-.571,2.346,2.346,0,0,0,.455-.836,3.439,3.439,0,0,0,.148-1.027,3.459,3.459,0,0,0-.212-1.249,3.035,3.035,0,0,0-.561-.942,2.462,2.462,0,0,0-.8-.6,2.164,2.164,0,0,0-.921-.212,2.327,2.327,0,0,0-.974.212,2.43,2.43,0,0,0-.815.6,2.885,2.885,0,0,0-.55.942,3.623,3.623,0,0,0-.2,1.249,3.439,3.439,0,0,0,.148,1.027,2.346,2.346,0,0,0,.455.836,2.167,2.167,0,0,0,.783.571A2.831,2.831,0,0,0,215.917-3.619Zm-6.54,1.587q-.487,0-.487-.381v-.825q0-.508.487-.508h.55q1.82,0,1.82-2.54a5.117,5.117,0,0,1,.317-1.831,4.36,4.36,0,0,1,.878-1.439,3.982,3.982,0,0,1,1.333-.942,4.145,4.145,0,0,1,1.683-.339,4.158,4.158,0,0,1,1.767.349,3.455,3.455,0,0,1,1.249.963,4.071,4.071,0,0,1,.741,1.471,6.922,6.922,0,0,1,.243,1.894,5.633,5.633,0,0,1-.212,1.535,3.741,3.741,0,0,1-.688,1.344,3.444,3.444,0,0,1-1.238.952,4.342,4.342,0,0,1-1.863.36,6.821,6.821,0,0,1-.9-.063,3.974,3.974,0,0,1-.952-.254,3.577,3.577,0,0,1-.921-.55,3.844,3.844,0,0,1-.825-.974,2.862,2.862,0,0,1-.995,1.365,2.671,2.671,0,0,1-1.524.413Zm36.766-1.714q.783,0,1.005-.413a2.875,2.875,0,0,0,.222-1.3,6.639,6.639,0,0,0-.18-1.609,3.5,3.5,0,0,0-.571-1.249,2.527,2.527,0,0,0-1.048-.815,4.026,4.026,0,0,0-1.609-.286,4.151,4.151,0,0,0-1.894.466,5.722,5.722,0,0,0-1.64,1.249,7.016,7.016,0,0,0-1.2,1.81,6.167,6.167,0,0,0-.561,2.148Zm5.567,0q.487,0,.487.381v.825q0,.508-.487.508h-.233a3.977,3.977,0,0,1-1.683-.328,2.088,2.088,0,0,1-1.048-1.3,3.01,3.01,0,0,1-1.111,1.217,2.848,2.848,0,0,1-1.492.413h-7.6a5.966,5.966,0,0,1-.688,1.926A5.352,5.352,0,0,1,236.6,1.387a5.58,5.58,0,0,1-1.757.963,6.8,6.8,0,0,1-2.2.339,7.237,7.237,0,0,1-2.847-.487,5.005,5.005,0,0,1-1.82-1.27A4.5,4.5,0,0,1,227.008-.8a6.763,6.763,0,0,1-.275-1.884A7.206,7.206,0,0,1,227-4.6a5.579,5.579,0,0,1,.836-1.767q.4.233.72.4t.7.4a5.4,5.4,0,0,0-.593,1.418,5.848,5.848,0,0,0-.19,1.46,4.139,4.139,0,0,0,.19,1.185,3.217,3.217,0,0,0,.667,1.185,3.679,3.679,0,0,0,1.3.921,5.138,5.138,0,0,0,2.1.37A5.4,5.4,0,0,0,234.31.741a3.911,3.911,0,0,0,1.355-.72,3.546,3.546,0,0,0,.952-1.249,4.231,4.231,0,0,0,.36-1.82V-10.1h1.693v3.048a8.473,8.473,0,0,1,2.307-2.974,5.083,5.083,0,0,1,3.26-1.111,4.973,4.973,0,0,1,2.159.434,4.067,4.067,0,0,1,1.492,1.185,5.12,5.12,0,0,1,.868,1.757,7.746,7.746,0,0,1,.286,2.127,1.664,1.664,0,0,0,.6,1.45,3.233,3.233,0,0,0,1.873.434Zm-8.953-10.371a.938.938,0,0,1,.286-.688.938.938,0,0,1,.688-.286.938.938,0,0,1,.688.286.938.938,0,0,1,.286.688.938.938,0,0,1-.286.688.938.938,0,0,1-.688.286.938.938,0,0,1-.688-.286A.938.938,0,0,1,242.756-14.118ZM257.7-9.44a5.513,5.513,0,0,0-.921.085,9.444,9.444,0,0,0-.984.222,7.07,7.07,0,0,0-.921.328,3.426,3.426,0,0,0-.709.4,3.212,3.212,0,0,0,.4.751,11.479,11.479,0,0,0,.762,1.005,13.283,13.283,0,0,0,.974,1.037,7.607,7.607,0,0,0,1.037.847,5.846,5.846,0,0,0,1.1-.815,8.049,8.049,0,0,0,.889-.974,4.867,4.867,0,0,0,.593-.974,2.109,2.109,0,0,0,.212-.836.655.655,0,0,0-.222-.487,1.617,1.617,0,0,0-.571-.339,3.978,3.978,0,0,0-.783-.19A5.915,5.915,0,0,0,257.7-9.44Zm-6.286,7.408q-.487,0-.487-.381v-.825q0-.508.487-.508h1.968a6.055,6.055,0,0,0,1.27-.127,6.275,6.275,0,0,0,1.1-.339,12,12,0,0,1-.984-.921q-.476-.5-.857-.974a8.828,8.828,0,0,1-.646-.91,4.174,4.174,0,0,1-.37-.73q-.042-.381-.063-.773t-.042-.773a7.06,7.06,0,0,1,1.016-.677,8.1,8.1,0,0,1,1.228-.55,9.705,9.705,0,0,1,1.344-.37,6.947,6.947,0,0,1,1.365-.138,6.761,6.761,0,0,1,1.757.2,4.707,4.707,0,0,1,1.238.508,2.157,2.157,0,0,1,.73.688,1.42,1.42,0,0,1,.233.741,4.2,4.2,0,0,1-.127.974,4.687,4.687,0,0,1-.455,1.132,8.191,8.191,0,0,1-.91,1.3A13.741,13.741,0,0,1,258.736-4a8.523,8.523,0,0,0,1.079.18,13.316,13.316,0,0,0,1.482.074h1.609q.487,0,.487.381v.825q0,.508-.487.508h-1.651a7.612,7.612,0,0,1-2.508-.349,8.329,8.329,0,0,1-1.535-.688,6.805,6.805,0,0,1-1.894.794,8.047,8.047,0,0,1-1.937.243Zm11.2,0q-.487,0-.487-.381v-.825q0-.508.487-.508h3.175v-6.329h1.693v8.043Zm2.9,3.408A.938.938,0,0,1,265.8.688a.971.971,0,0,1,1.376,0,.938.938,0,0,1,.286.688.938.938,0,0,1-.286.688.971.971,0,0,1-1.376,0A.938.938,0,0,1,265.509,1.376Z" transform="translate(-155.19 75.539)" fill="#89c19e"/>
        <g id="Group_9" data-name="Group 9" transform="translate(-188.35 -33.879)">
          <path id="Path_26" data-name="Path 26" d="M370.348,250.173a8.639,8.639,0,0,0,12.327-6.815h-5.814a3.239,3.239,0,0,1-.129.307,2.929,2.929,0,1,1-5.078-2.892l-3.615-4.534a8.634,8.634,0,0,0,2.309,13.934Z" transform="translate(-37.744 -140.207)" fill="#309255"/>
          <path id="Path_27" data-name="Path 27" d="M457.709,243.2a2.93,2.93,0,0,1-5.4-.307h-5.815a8.634,8.634,0,1,0,14.472-7.274l-3.589,4.5a2.932,2.932,0,0,1,.332,3.081Z" transform="translate(-98.397 -139.745)" fill="#309255"/>
          <path id="Path_28" data-name="Path 28" d="M315.9,167.922a8.619,8.619,0,0,0,12.4,11.016l-3.62-4.539a2.916,2.916,0,1,1-.854-5.647l1.276-5.591a8.613,8.613,0,0,0-9.2,4.761Z" transform="translate(0 -85.414)" fill="#309255"/>
          <path id="Path_29" data-name="Path 29" d="M345.447,85.126a8.62,8.62,0,1,0-7.481,15.533,8.169,8.169,0,0,0,1.331.5l1.274-5.581c-.046-.018-.09-.036-.13-.055a2.916,2.916,0,1,1,3.856-3.964l5.14-2.475a8.563,8.563,0,0,0-3.99-3.958Z" transform="translate(-13.506 -26.448)" fill="#309255"/>
          <path id="Path_30" data-name="Path 30" d="M497.74,96.737a8.621,8.621,0,0,0-4.026-11.507,8.71,8.71,0,0,0-9.275,1.118,8.6,8.6,0,0,0-2.219,2.943l5.138,2.475a2.973,2.973,0,0,1,.3-.546,2.916,2.916,0,0,1,4.94,3.042,2.791,2.791,0,0,1-1.763,1.494l1.275,5.588a8.66,8.66,0,0,0,5.63-4.607Z" transform="translate(-125.144 -26.528)" fill="#309255"/>
          <path id="Path_31" data-name="Path 31" d="M411.85,58.509a2.915,2.915,0,1,1,5.383.316c-.015.032-.034.066-.051.1l5.141,2.476.05-.1a8.62,8.62,0,1,0-15.541-.024L411.97,58.8C411.924,58.7,411.882,58.6,411.85,58.509Z" transform="translate(-68.084)" fill="#309255"/>
          <path id="Path_32" data-name="Path 32" d="M520.452,164.012a8.832,8.832,0,0,0-5.081-.726c-.116.017-.237.039-.361.065l1.268,5.555a2.822,2.822,0,0,1,1.7.246,2.915,2.915,0,1,1-2.493,5.269l-3.592,4.5a8.62,8.62,0,1,0,8.56-14.913Z" transform="translate(-147.355 -85.523)" fill="#309255"/>
          <path id="Path_33" data-name="Path 33" d="M355.961,165.477a27.742,27.742,0,0,0-2.994-1.35,8.639,8.639,0,0,0-2.021-.606l-1.276,5.591h-.1a2.885,2.885,0,0,1,.607.075,22.323,22.323,0,0,1,2.521,1.037,17.077,17.077,0,0,0,3.263-4.747Z" transform="translate(-25.848 -85.774)" fill="#309255"/>
          <path id="Path_34" data-name="Path 34" d="M382.825,99.829l-5.14,2.475a2.965,2.965,0,0,1,.255.7c.049.221.3.818.558,1.956a17.13,17.13,0,0,0,5.736-.436,26.009,26.009,0,0,0-1.032-3.811,8.584,8.584,0,0,0-1.094-2.087,8.579,8.579,0,0,1,.717,1.2Z" transform="translate(-46.894 -37.197)" fill="#309255"/>
          <path id="Path_35" data-name="Path 35" d="M501.627,135.573a27.013,27.013,0,0,0,3.134-.077,8.585,8.585,0,0,0,1.875-.27l-1.275-5.588h0a3.868,3.868,0,0,1-.9.157c-.118.007-1.032.043-1.975.053a17.132,17.132,0,0,0-.859,5.725Z" transform="translate(-139.668 -60.41)" fill="#309255"/>
          <path id="Path_36" data-name="Path 36" d="M377.328,226.091a8.6,8.6,0,0,0-1.614,1.248l3.615,4.534a2.913,2.913,0,0,1,.854-.84,21.825,21.825,0,0,1,2.123-1.163,17.142,17.142,0,0,0-1.653-5.52,27.809,27.809,0,0,0-3.325,1.741Z" transform="translate(-45.419 -131.306)" fill="#309255"/>
          <path id="Path_37" data-name="Path 37" d="M446.328,247.429h5.815a2.9,2.9,0,0,1-.162-.866,22.115,22.115,0,0,1,.458-2.795,17.13,17.13,0,0,0-5.361-2.09,27.918,27.918,0,0,0-.656,3.307,6.633,6.633,0,0,0-.147,1.493,8.659,8.659,0,0,0,.175,1.719Q446.372,247.817,446.328,247.429Z" transform="translate(-98.236 -144.278)" fill="#309255"/>
          <path id="Path_38" data-name="Path 38" d="M446.047,88.653a13.877,13.877,0,0,1-1.495,2.194,17.151,17.151,0,0,0,3.915,4.216,20.287,20.287,0,0,0,2.77-4.033l-.05.1Z" transform="translate(-96.948 -29.731)" fill="#309255"/>
          <path id="Path_39" data-name="Path 39" d="M504.369,201.214l-.038-.016a8.929,8.929,0,0,1-2.275-2.219,17.1,17.1,0,0,0-5.012,2.849,23.259,23.259,0,0,0,2.793,3.156,8.6,8.6,0,0,0,.94.733Z" transform="translate(-136.241 -112.316)" fill="#309255"/>
          <path id="Path_40" data-name="Path 40" d="M474.821,115.284a28.143,28.143,0,0,0,2.15,9.418h0a56.2,56.2,0,0,1,4.8-3.416,22.059,22.059,0,0,1-.962-3.707,21.421,21.421,0,0,1,1.007-11.173l-5.138-2.474c-.03.064-.058.124-.082.177a23.332,23.332,0,0,0-1.453,5.3C475.185,109.117,474.739,113.165,474.821,115.284Z" transform="translate(-119.598 -41.167)" fill="#309255"/>
          <path id="Path_41" data-name="Path 41" d="M436.908,223.551h0c.223.131.4.238.535.313a2.909,2.909,0,0,1,.884.755h0l3.589-4.5.007.007a8.483,8.483,0,0,0-.9-.736,24.315,24.315,0,0,0-4.655-2.444c-.737-.311-5.663-1.617-5.663-1.617a28.135,28.135,0,0,0-9.657,0s1.9,4.079,2.266,5.436a21.965,21.965,0,0,1,11.277,1.623A18.5,18.5,0,0,1,436.908,223.551Z" transform="translate(-79.351 -124.24)" fill="#309255"/>
          <path id="Path_42" data-name="Path 42" d="M374.136,116.854a21.9,21.9,0,0,1-3.482,1.8,21.487,21.487,0,0,1-6.733,1.593v.006a14.967,14.967,0,0,1-4.88-.3l.035.015-1.273,5.579a16.47,16.47,0,0,0,4.421.473c.6,0,1.2-.022,1.8-.061a49.791,49.791,0,0,0,5.8-1,28.024,28.024,0,0,0,8.7-4.189,34.182,34.182,0,0,1-4.388-3.916Z" transform="translate(-32.012 -50.841)" fill="#309255"/>
          <path id="Path_43" data-name="Path 43" d="M359.868,154.2a22.02,22.02,0,0,1-5.138,8.751h0c-.1.1-.192.2-.29.3a2.919,2.919,0,0,1-1.076.7l3.62,4.539a8.478,8.478,0,0,0,1.437-1.15,28.279,28.279,0,0,0,3.087-3.694,42.02,42.02,0,0,0,2.849-5.149,27.913,27.913,0,0,0,2.155-9.413,49.786,49.786,0,0,1-5.8,1,21.255,21.255,0,0,1-.844,4.116Z" transform="translate(-28.688 -74.969)" fill="#309255"/>
          <path id="Path_44" data-name="Path 44" d="M425.712,97.608a23.474,23.474,0,0,1-3.378-1.485,21.288,21.288,0,0,1-5.637-4.386h0a17.415,17.415,0,0,1-2.636-3.569l-5.138,2.474c-.279-.587-.121-.143.328.629a22.986,22.986,0,0,0,3.047,4.11,34.181,34.181,0,0,0,4.4,3.916,28.038,28.038,0,0,0,8.7,4.189C425.312,101.368,425.758,97.321,425.712,97.608Z" transform="translate(-70.171 -29.37)" fill="#309255"/>
          <path id="Path_45" data-name="Path 45" d="M388.6,186.518a42.02,42.02,0,0,1-2.849,5.149,22.345,22.345,0,0,1,3.212,4.024h0a21.807,21.807,0,0,1,3.138,8.484.052.052,0,0,1,0,.009,3.689,3.689,0,0,1-.048,1.952h5.814a8.62,8.62,0,0,0-.056-2.328,27.8,27.8,0,0,0-.694-3.506c-.093-.329-.17-.6-.221-.794-.366-1.357-2.266-5.436-2.266-5.436A28.147,28.147,0,0,0,388.6,186.518Z" transform="translate(-52.93 -102.987)" fill="#309255"/>
          <g id="Group_8" data-name="Group 8" transform="translate(351.351 77.768)">
            <path id="Path_46" data-name="Path 46" d="M525.53,163.6Z" transform="translate(-508.897 -163.604)" fill="#309255"/>
            <path id="Path_47" data-name="Path 47" d="M476.529,169.522a2.9,2.9,0,0,1,.5-.128h-.008l-1.268-5.555a20.139,20.139,0,0,0-5.486,2.29,56.2,56.2,0,0,0-4.8,3.416h0a28.14,28.14,0,0,0-6.022,7.55s4.926,1.306,5.663,1.617a22.324,22.324,0,0,1,9.51-8.413Q475.555,169.869,476.529,169.522Z" transform="translate(-459.451 -163.781)" fill="#309255"/>
          </g>
        </g>
      </g>
    </g>
  </g>
</svg>
