<svg id="Layer_1" data-name="Layer 1" xmlns="http://www.w3.org/2000/svg" viewBox="0 0 310.25 230.88"><defs><style>.cls-1{fill:#309255;}.cls-2{fill:#f7931e;}.cls-3{fill:#999;}</style></defs><path class="cls-1" d="M175.71,33.89a18,18,0,0,1,12.87,1.82c7.49,3.83,11.12,13.55,8.28,21.4A17.74,17.74,0,0,1,178.94,69c-9.41-.07-17.35-9-16.88-18.26A18.08,18.08,0,0,1,175.71,33.89Zm1.08,7.37c-6.51,2-9.59,10.59-5.42,16.1,4.32,6.6,15.79,5.3,18.32-2.28C193.17,47.36,184.71,38.45,176.79,41.26Z" transform="translate(-24.81 -33.45)"/><path class="cls-1" d="M61.07,49.65c10.36-2.6,21.74,6.07,21.54,16.82.64,7.17-4.08,14-10.48,16.94-3.57,1.72-7.7,1.68-11.53,1-7.94-1.87-14-9.81-13.51-18C47.13,58.48,53.33,51.26,61.07,49.65Zm1.71,7.19c-5.19.8-8.94,6.21-8.29,11.33.42,5.25,5.28,9.73,10.61,9.29,6.47.3,11.56-6.58,9.94-12.75A10.37,10.37,0,0,0,62.78,56.84Z" transform="translate(-24.81 -33.45)"/><path class="cls-1" d="M291.36,49.56A17.85,17.85,0,0,1,307.2,80.07a16.84,16.84,0,0,1-12.5,4.83c-9.28.23-17.77-8.19-17.53-17.49C276.65,59,283.22,51.16,291.36,49.56Zm.59,7.53c-7.88,1.94-10.05,13.65-3.32,18.23,5.86,5,16.07.8,16.68-6.9C306.58,61.22,298.82,54.76,292,57.09Z" transform="translate(-24.81 -33.45)"/><path class="cls-1" d="M130.9,74.17c15.5-1.53,31.89-1.74,46.22,5.25,2.44,1.59,5.14.31,7.46-.78A67,67,0,0,1,203,73.71c24.51-1.67,50.43,2,71.18,16,4,2.32,7.23,5.83,11.24,8a68.91,68.91,0,0,1,30.6-1.19c6.75,1.35,13.83,4.63,17.17,11,3.68,7,1.71,16.83-5,21.25-3.89,2.37-8.56.51-12.36-1.11-9.34-4.34-17.6-10.58-25.85-16.66-2.14-1.47-4-3.46-6.4-4.46-11.42,4.49-19.8,14.11-27,23.67a61.09,61.09,0,0,0-12.31,45.87c3.26-2.66,5.53-6.24,8-9.57,4-5.5,7.83-11.19,12.38-16.29,2.41-2.58,5.07-5.34,8.65-6.15,2.56-.35,4.72,1.76,5.57,4,2.94,10.14-3.75,20.43-.82,30.53,3.38-3.25,4.9-7.8,6.69-12a120.29,120.29,0,0,0,7.35-27.83c.52-2.71,3.49-2.62,5.62-2.38.9,1.54,1.88,3.23,1.41,5.1a119.42,119.42,0,0,1-10.4,34.63c-2.09,4-4.66,8.62-9.32,10-4.47,1.08-8-3.22-9-7.15-2.39-9.2,2.2-18.28,1.86-27.52-6,8.19-11.8,16.57-17.88,24.71a26.29,26.29,0,0,1-7,6.88c-2.53,1.38-6.11,1.29-8.13-.95-2.25-2.44-2.73-5.89-3-9.05-.82-14.75,2.68-29.85,10.84-42.24,7.9-11.73,17.42-22.9,30.07-29.66a76.46,76.46,0,0,0-12.92-8.76l.29-1.08a20.49,20.49,0,0,1-5.54-1.5l-.39-4.19c-.14,1.29-.26,2.57-.38,3.86-15.09-7.24-32.25-8.89-48.79-8.67-7.32-.06-14.51,1.78-21.33,4.3,2.5,2.49,5.59,4.28,8.15,6.71,11.6,10.31,20.93,24,23.45,39.54,2.49,15.25,2,31.24-2.94,46-1.86,4.84-4.2,10.75-9.65,12.38-4.67,1.36-8.9-2.23-11-6-5-8.62-6.75-18.59-8.71-28.23-1.19-5.51-1.49-11.33-4-16.49-.91-2.47-4.31-2.29-6.21-1.22-3,4.64-3.26,10.41-4.35,15.71-2,9.88-3.77,20.05-8.42,29.1-2.14,3.87-6,8.36-10.91,7.31-4.84-.77-7.48-5.53-9.32-9.59-4.78-11.62-5.79-24.45-5.43-36.89.56-9,1.92-18.12,5.73-26.37A79.54,79.54,0,0,1,171.78,85.4,49.4,49.4,0,0,0,154,80.9c-18.6-.74-37.89,1.1-54.77,9.49a95.47,95.47,0,0,0-16.7,10.54,77.39,77.39,0,0,1,17.57,13.88c6.38,7,12.44,14.49,16.57,23.08,5,9.94,7,21.2,7,32.27-.17,3.87-.32,8.11-2.73,11.35-2,2.92-6.35,3-9.1,1.16a31,31,0,0,1-7.18-7.53c-4.54-6.27-9.11-12.52-13.58-18.84-1-1.26-1.81-2.92-3.64-3.13.32,8.75,4.19,17.48,1.75,26.2-1,3.7-4.27,7.48-8.45,6.76-4.58-1-7.17-5.41-9.24-9.23a124.78,124.78,0,0,1-10.39-32.5,22.44,22.44,0,0,1-.16-6.94,5.46,5.46,0,0,1,6.46,0c1.5,9.47,3.53,18.88,7.1,27.81,1.82,4.48,3.52,9.15,6.59,13,1.61-.15,1.11-2.28,1.44-3.39.32-8.73-3.66-17.33-1.8-26.06.61-3.55,4.8-6,8-3.94,5.74,3.34,9.4,9.11,13.39,14.23,4.42,5.71,8,12.16,13.37,17.07,1.45-6.22.54-12.66-.28-18.9-2.83-17.17-13.92-31.64-26.53-43-3.91-3.08-8.09-6.62-13.07-7.55C66,113.68,56.6,121.23,45.9,126.7c-3.6,1.7-7.53,3.47-11.6,2.9-8.8-3.11-12-14.82-7.36-22.57,3.63-6.4,11-9.42,17.88-10.66A71.75,71.75,0,0,1,75,97.83C90.37,84,110.43,76,130.9,74.17Zm19.38,48.06c-4,10.49-4.61,22-4,33.07.85,8.09,1.72,16.43,5.26,23.86.75,1.29,1.51,3.26,3.37,2.91,1.63.13,2.11-1.64,2.84-2.73,5.81-11.79,6.88-25.08,9.82-37.72,1.28-4.51,3-10.16,8-11.71,4.16-.42,9.58-1.3,12.52,2.49,3.79,5,4.71,11.43,5.82,17.43,1.64,9,3.38,18.1,6.76,26.66a15.68,15.68,0,0,0,3.43,5.54c2.42.62,3.72-1.75,4.53-3.59,3-7,4-14.69,4.79-22.23.89-12,.39-24.36-4.51-35.48a71.19,71.19,0,0,0-29-31.63C166.94,96.7,156.1,108.29,150.28,122.23ZM33,111.22c-2,4.08-.15,8.65,2.47,11.94,11.77-4.09,21.44-12.28,31.68-19.13-5.71-1.8-11.83-1.15-17.7-.91C43.41,103.87,36.21,105.38,33,111.22Zm259.77-7.37C301.2,110,309.6,116.32,319,121a20.41,20.41,0,0,0,5.59,1.68c2.8-3.26,4.23-8.19,1.9-12.09-3-4.78-8.94-6.38-14.21-7.2C305.79,102.65,299.16,102.39,292.79,103.85Z" transform="translate(-24.81 -33.45)"/><path class="cls-2" d="M43.46,162.56H26.6v-2.89H43.46Zm0,5.76H26.6v-2.88H43.46ZM39,175.53V217a5.13,5.13,0,0,0,1.29,3.42,4.49,4.49,0,0,0,1.41,1,3.87,3.87,0,0,0,1.72.39h3.24v7.56H43.43a10,10,0,0,1-4.4-1,11.71,11.71,0,0,1-3.62-2.66,12.51,12.51,0,0,1-2.44-4,12.86,12.86,0,0,1-.89-4.82V175.53Z" transform="translate(-24.81 -33.45)"/><path class="cls-2" d="M43.61,221.82H59.26v7.56H43.61Z" transform="translate(-24.81 -33.45)"/><path class="cls-2" d="M56.2,221.82H71.85v7.56H56.2Z" transform="translate(-24.81 -33.45)"/><path class="cls-2" d="M68.79,221.82H84.45v7.56H68.79Z" transform="translate(-24.81 -33.45)"/><path class="cls-2" d="M81.38,221.82H97v7.56H81.38Z" transform="translate(-24.81 -33.45)"/><path class="cls-2" d="M94,221.82h15.66v7.56H94Z" transform="translate(-24.81 -33.45)"/><path class="cls-2" d="M106.56,221.82h15.66v7.56H106.56Z" transform="translate(-24.81 -33.45)"/><path class="cls-2" d="M119.15,221.82h15.66v7.56H119.15Z" transform="translate(-24.81 -33.45)"/><path class="cls-2" d="M131.74,221.82H147.4v7.56H131.74Z" transform="translate(-24.81 -33.45)"/><path class="cls-2" d="M144.33,221.82H160v7.56H144.33Z" transform="translate(-24.81 -33.45)"/><path class="cls-2" d="M202.62,229.38H157v-7.56h13.87a39.81,39.81,0,0,1-3-4.4,27.65,27.65,0,0,1-2.37-5.28,28.34,28.34,0,0,1-1-3.78,21.37,21.37,0,0,1-.35-3.82,18,18,0,0,1,.8-5.38,11.18,11.18,0,0,1,2.65-4.44,12.88,12.88,0,0,1,4.84-3,21.66,21.66,0,0,1,7.4-1.1,21.93,21.93,0,0,1,7.49,1.12,12.87,12.87,0,0,1,4.87,3,11.19,11.19,0,0,1,2.64,4.48,18,18,0,0,1,.81,5.44,21.09,21.09,0,0,1-.33,3.72,30.61,30.61,0,0,1-.88,3.64,23.8,23.8,0,0,1-2.32,5.32,46.28,46.28,0,0,1-3,4.44h13.47ZM172,209.52a23,23,0,0,0,1.69,3.85,30.54,30.54,0,0,0,2.13,3.32,29.73,29.73,0,0,0,2.24,2.7c.74.79,1.41,1.45,2,2,.58-.54,1.24-1.19,2-2a25.77,25.77,0,0,0,2.21-2.66,30.56,30.56,0,0,0,2.07-3.3,20.55,20.55,0,0,0,1.61-3.85,16,16,0,0,0,.83-4.92,6.93,6.93,0,0,0-.45-2.5,5.11,5.11,0,0,0-1.5-2.07,7.78,7.78,0,0,0-2.73-1.4,14.62,14.62,0,0,0-4.17-.52,14.86,14.86,0,0,0-4.15.5,7.54,7.54,0,0,0-2.69,1.36,5,5,0,0,0-1.48,2,6.65,6.65,0,0,0-.45,2.44,13.29,13.29,0,0,0,.23,2.5A19.93,19.93,0,0,0,172,209.52Z" transform="translate(-24.81 -33.45)"/><path class="cls-2" d="M199.55,221.82h15.66v7.56H199.55Z" transform="translate(-24.81 -33.45)"/><path class="cls-2" d="M212.14,221.82H227.8v7.56H212.14Z" transform="translate(-24.81 -33.45)"/><path class="cls-2" d="M224.73,221.82h15.66v7.56H224.73Z" transform="translate(-24.81 -33.45)"/><path class="cls-2" d="M237.32,221.82H253v7.56H237.32Z" transform="translate(-24.81 -33.45)"/><path class="cls-2" d="M249.92,221.82h15.65v7.56H249.92Z" transform="translate(-24.81 -33.45)"/><path class="cls-2" d="M262.51,221.82h15.65v7.56H262.51Z" transform="translate(-24.81 -33.45)"/><path class="cls-2" d="M275.1,221.82h15.65v7.56H275.1Z" transform="translate(-24.81 -33.45)"/><path class="cls-2" d="M287.69,221.82h7.62a18.81,18.81,0,0,1-.43-2.38,20.59,20.59,0,0,1-.15-2.5V208.3a19.07,19.07,0,0,1,1.24-6.86,18.11,18.11,0,0,1,3.41-5.62,16.27,16.27,0,0,1,5-3.8,13.91,13.91,0,0,1,6.16-1.4,13.68,13.68,0,0,1,6.14,1.44,16.63,16.63,0,0,1,5.05,3.89,18.68,18.68,0,0,1,4.65,12.36V217a18.72,18.72,0,0,1-1.24,6.76,18.44,18.44,0,0,1-3.4,5.62,16.78,16.78,0,0,1-5,3.86,13.58,13.58,0,0,1-6.14,1.44,14.12,14.12,0,0,1-6.26-1.4,15.73,15.73,0,0,1-5-3.93H287.69Zm22.88-23.63a7.87,7.87,0,0,0-3.49.8,9.18,9.18,0,0,0-2.82,2.17,10.07,10.07,0,0,0-1.9,3.21,11.13,11.13,0,0,0-.69,3.93V217a11.27,11.27,0,0,0,.69,4,10.23,10.23,0,0,0,1.9,3.22,9,9,0,0,0,2.82,2.19,7.87,7.87,0,0,0,3.49.8,7.73,7.73,0,0,0,3.45-.8,9.3,9.3,0,0,0,2.85-2.19,10.26,10.26,0,0,0,1.91-3.22,11,11,0,0,0,.69-3.89V208.3a10.8,10.8,0,0,0-.69-3.87,10.32,10.32,0,0,0-1.91-3.21A9.68,9.68,0,0,0,314,199,7.62,7.62,0,0,0,310.57,198.19Z" transform="translate(-24.81 -33.45)"/><path class="cls-3" d="M48.39,260.82H44.77a4.87,4.87,0,0,1-1.57.91,5.86,5.86,0,0,1-2,.32,5.55,5.55,0,0,1-1.93-.33,5.24,5.24,0,0,1-1.57-.9,4.28,4.28,0,0,1-1.07-1.3A3.46,3.46,0,0,1,36.3,258v-.18a3.63,3.63,0,0,0-.88.19,1.75,1.75,0,0,0-.58.37,1.3,1.3,0,0,0-.32.49,1.81,1.81,0,0,0-.1.58v4.9H32.26v-4.9a3.52,3.52,0,0,1,.22-1.26,2.75,2.75,0,0,1,.71-1.06,3.69,3.69,0,0,1,1.25-.73A6.07,6.07,0,0,1,36.3,256v-.09a3.38,3.38,0,0,1,.38-1.55,4.32,4.32,0,0,1,1.07-1.31,5.15,5.15,0,0,1,1.57-.9,5.63,5.63,0,0,1,1.93-.33,5.53,5.53,0,0,1,1.92.32,5.08,5.08,0,0,1,1.57.88,4.25,4.25,0,0,1,1.06,1.3,3.4,3.4,0,0,1,.39,1.59v2a3.48,3.48,0,0,1-.18,1.13h2.38ZM44,255.93a2.06,2.06,0,0,0-.21-.91,2.51,2.51,0,0,0-.6-.74,2.8,2.8,0,0,0-.88-.5,3,3,0,0,0-1.08-.19,3,3,0,0,0-1.08.19,3.09,3.09,0,0,0-.89.51,2.17,2.17,0,0,0-.6.75,2,2,0,0,0-.22.89v2a2.06,2.06,0,0,0,.22.9,2.37,2.37,0,0,0,.6.75,2.86,2.86,0,0,0,.89.5,3,3,0,0,0,1.08.19,3,3,0,0,0,1.08-.19,2.8,2.8,0,0,0,.88-.5,2.68,2.68,0,0,0,.6-.75,2.07,2.07,0,0,0,.21-.92Z" transform="translate(-24.81 -33.45)"/><path class="cls-3" d="M49.64,257.17a2.5,2.5,0,0,1,.2-1,2.78,2.78,0,0,1,.58-.86,3.53,3.53,0,0,1,.87-.65,3.86,3.86,0,0,1,1.08-.39,3.7,3.7,0,0,1,.94-1,6.63,6.63,0,0,1,1.36-.76,8.68,8.68,0,0,1,3.31-.66,7.89,7.89,0,0,1,2,.23,4.77,4.77,0,0,1,1.65.74,3.73,3.73,0,0,1,1.16,1.3,4.06,4.06,0,0,1,.43,1.92v2a2.23,2.23,0,0,1-.28,1.11,2.9,2.9,0,0,1-.77.91,3.69,3.69,0,0,1-1.13.6,4.25,4.25,0,0,1-1.38.23H47.43v-1.76h2.21Zm2.16,1.88h2.74v-1.9a1.07,1.07,0,0,0-.1-.47,1.24,1.24,0,0,0-.29-.39,1.57,1.57,0,0,0-.44-.25,1.61,1.61,0,0,0-.54-.09,1.51,1.51,0,0,0-.53.09,1.39,1.39,0,0,0-.44.26,1.24,1.24,0,0,0-.29.39,1.14,1.14,0,0,0-.11.49Zm4.91,0H59.6a1.91,1.91,0,0,0,.54-.08,1.61,1.61,0,0,0,.45-.24,1.1,1.1,0,0,0,.3-.35A.78.78,0,0,0,61,258v-2a2.28,2.28,0,0,0-.25-1.11,2.37,2.37,0,0,0-.68-.76,2.78,2.78,0,0,0-1-.42,4.73,4.73,0,0,0-1.13-.14,5.46,5.46,0,0,0-.9.07,5.69,5.69,0,0,0-.86.18,5.2,5.2,0,0,0-.78.29,3.24,3.24,0,0,0-.63.4,3.34,3.34,0,0,1,.77.46,3.15,3.15,0,0,1,.6.61,2.77,2.77,0,0,1,.39.74,2.25,2.25,0,0,1,.14.82Z" transform="translate(-24.81 -33.45)"/><path class="cls-3" d="M67.67,251.83a18.31,18.31,0,0,1,3.39.27,7,7,0,0,1,2.29.81,3.39,3.39,0,0,1,1.32,1.31,3.81,3.81,0,0,1,.41,1.79v3.05h2.21v1.76H67.05v-1.76h5.87V256a1.81,1.81,0,0,0-.3-1,2.25,2.25,0,0,0-.93-.76,5.56,5.56,0,0,0-1.63-.47,14.89,14.89,0,0,0-2.39-.16Z" transform="translate(-24.81 -33.45)"/><path class="cls-3" d="M82.18,251.83v7.23H84.4v1.76H76.32v-1.76H80v-7.23Zm-3.06-2.59a.73.73,0,0,1,.09-.35,1.09,1.09,0,0,1,.24-.29,1.31,1.31,0,0,1,.35-.19,1.36,1.36,0,0,1,.86,0,1.31,1.31,0,0,1,.35.19,1.28,1.28,0,0,1,.23.29.73.73,0,0,1,.09.35.79.79,0,0,1-.32.63,1.32,1.32,0,0,1-1.21.19,1.31,1.31,0,0,1-.35-.19.92.92,0,0,1-.24-.28A.73.73,0,0,1,79.12,249.24Z" transform="translate(-24.81 -33.45)"/><path class="cls-3" d="M94.21,260.82H83.42v-1.76h2.21v-3.21a3.34,3.34,0,0,1,.39-1.59,4,4,0,0,1,1-1.28,5.26,5.26,0,0,1,1.57-.85,6.05,6.05,0,0,1,1.93-.3,6.5,6.5,0,0,1,2.46.5l-.86,1.59c-.32-.11-.61-.19-.88-.26a3.29,3.29,0,0,0-.72-.08,3.51,3.51,0,0,0-1.09.17,3,3,0,0,0-.87.48,2.18,2.18,0,0,0-.6.72,1.91,1.91,0,0,0-.21.89v3.22h6.41Z" transform="translate(-24.81 -33.45)"/><path class="cls-3" d="M109.59,248.34v9.6a1,1,0,0,0,.1.44,1.43,1.43,0,0,0,.3.35,1.36,1.36,0,0,0,.44.25,1.91,1.91,0,0,0,.54.08h1v1.76h-1a4.16,4.16,0,0,1-1.38-.23,3.86,3.86,0,0,1-1.13-.62,2.87,2.87,0,0,1-.76-.91,2.3,2.3,0,0,1-.28-1.12v-9.6Z" transform="translate(-24.81 -33.45)"/><path class="cls-3" d="M111,259.06h2.39a3.41,3.41,0,0,1-.14-.55,3.69,3.69,0,0,1,0-.58v-2a3.4,3.4,0,0,1,.39-1.59,4.11,4.11,0,0,1,1.06-1.3,5.32,5.32,0,0,1,1.57-.88,5.86,5.86,0,0,1,3.85,0,5.21,5.21,0,0,1,1.58.9,4.28,4.28,0,0,1,1.06,1.31,3.27,3.27,0,0,1,.39,1.55v2a3.32,3.32,0,0,1-.39,1.57,4.25,4.25,0,0,1-1.06,1.3,5.09,5.09,0,0,1-1.58.9,5.52,5.52,0,0,1-1.91.33,5.84,5.84,0,0,1-2-.32,5,5,0,0,1-1.57-.91H111Zm7.16-5.47a3,3,0,0,0-1.09.19,3,3,0,0,0-.89.5,2.47,2.47,0,0,0-.59.74,2.07,2.07,0,0,0-.22.91v2a2.08,2.08,0,0,0,.22.92,2.64,2.64,0,0,0,.59.75,3,3,0,0,0,.89.5,3.19,3.19,0,0,0,2.17,0,3,3,0,0,0,.89-.5,2.68,2.68,0,0,0,.6-.75,2,2,0,0,0,.21-.9v-2a2,2,0,0,0-.21-.89,2.43,2.43,0,0,0-.6-.75,3.23,3.23,0,0,0-.89-.51A3,3,0,0,0,118.18,253.59Z" transform="translate(-24.81 -33.45)"/><path class="cls-3" d="M149.87,260.82h-2.24a3.25,3.25,0,0,1-.68,1.52,4.78,4.78,0,0,1-1.3,1.1,6.68,6.68,0,0,1-1.72.66,8.26,8.26,0,0,1-1.92.22,8.52,8.52,0,0,1-2.08-.25,5.84,5.84,0,0,1-1.82-.77,4.08,4.08,0,0,1-1.28-1.27,3.24,3.24,0,0,1-.49-1.8v-6.75h2.17v6.75a1.81,1.81,0,0,0,.3,1,2.52,2.52,0,0,0,.79.73,3.85,3.85,0,0,0,1.12.44,6.14,6.14,0,0,0,1.29.14,6,6,0,0,0,1.28-.14,3.85,3.85,0,0,0,1.12-.44,2.53,2.53,0,0,0,.79-.73,1.81,1.81,0,0,0,.3-1V248.34h2.17v10.72h2.2Z" transform="translate(-24.81 -33.45)"/><path class="cls-3" d="M158.66,249.45l-3.34,2.41.52,0h.52a12.62,12.62,0,0,1,1.51.08,9.19,9.19,0,0,1,1.44.26,6.24,6.24,0,0,1,1.27.51,3.56,3.56,0,0,1,1,.77,3.38,3.38,0,0,1,.67,1.1,3.89,3.89,0,0,1,.25,1.46v2a2.34,2.34,0,0,1-.28,1.11,2.9,2.9,0,0,1-.77.91,3.69,3.69,0,0,1-1.13.6,4.27,4.27,0,0,1-1.39.23h-10v-1.76h10a2,2,0,0,0,.55-.08,1.43,1.43,0,0,0,.44-.24,1.1,1.1,0,0,0,.3-.35.88.88,0,0,0,.11-.42v-2a1.94,1.94,0,0,0-.35-1.18,2.38,2.38,0,0,0-.91-.74,4.56,4.56,0,0,0-1.28-.39,10.11,10.11,0,0,0-1.45-.11,12.22,12.22,0,0,0-1.35.08c-.45.05-.87.1-1.27.18s-.74.14-1.05.22a5.92,5.92,0,0,0-.72.22l-1-1.46,6.12-4.61Z" transform="translate(-24.81 -33.45)"/><path class="cls-3" d="M166.41,259.92a.79.79,0,0,1,.32-.63,1.14,1.14,0,0,1,.77-.26,1.18,1.18,0,0,1,.43.07,1.13,1.13,0,0,1,.36.19.92.92,0,0,1,.24.28.82.82,0,0,1,.08.35.85.85,0,0,1-.08.35,1.05,1.05,0,0,1-.24.28,1.15,1.15,0,0,1-.36.2,1.33,1.33,0,0,1-.85,0,1,1,0,0,1-.35-.2.86.86,0,0,1-.23-.28A.73.73,0,0,1,166.41,259.92Z" transform="translate(-24.81 -33.45)"/><path class="cls-3" d="M172.5,259.92a.79.79,0,0,1,.32-.63,1.19,1.19,0,0,1,.78-.26,1.25,1.25,0,0,1,.43.07,1.08,1.08,0,0,1,.35.19.92.92,0,0,1,.24.28.7.7,0,0,1,.09.35.73.73,0,0,1-.09.35,1.05,1.05,0,0,1-.24.28,1.1,1.1,0,0,1-.35.2,1.55,1.55,0,0,1-.43.07,1.49,1.49,0,0,1-.43-.07,1.1,1.1,0,0,1-.35-.2,1.23,1.23,0,0,1-.23-.28A.73.73,0,0,1,172.5,259.92Z" transform="translate(-24.81 -33.45)"/><path class="cls-3" d="M194.73,260.82h-3.61a5,5,0,0,1-1.58.91,5.86,5.86,0,0,1-1.95.32,5.59,5.59,0,0,1-1.93-.33,5.37,5.37,0,0,1-1.57-.9,4.11,4.11,0,0,1-1.06-1.3,3.35,3.35,0,0,1-.39-1.57v-.18a3.74,3.74,0,0,0-.88.19,1.75,1.75,0,0,0-.58.37,1.3,1.3,0,0,0-.32.49,1.81,1.81,0,0,0-.09.58v4.9H178.6v-4.9a3.52,3.52,0,0,1,.22-1.26,2.87,2.87,0,0,1,.71-1.06,3.69,3.69,0,0,1,1.25-.73,6.07,6.07,0,0,1,1.86-.33v-.09a3.27,3.27,0,0,1,.39-1.55,4.28,4.28,0,0,1,1.06-1.31,5.09,5.09,0,0,1,1.58-.9,5.55,5.55,0,0,1,1.93-.33,5.61,5.61,0,0,1,1.92.32,5.32,5.32,0,0,1,1.57.88,4.36,4.36,0,0,1,1,1.3,3.4,3.4,0,0,1,.39,1.59v2a3.48,3.48,0,0,1-.18,1.13h2.38Zm-4.37-4.89a2.06,2.06,0,0,0-.21-.91,2.36,2.36,0,0,0-.6-.74,2.8,2.8,0,0,0-.88-.5,2.94,2.94,0,0,0-1.07-.19,3,3,0,0,0-1.09.19,3.09,3.09,0,0,0-.89.51,2.43,2.43,0,0,0-.6.75,2,2,0,0,0-.21.89v2a2,2,0,0,0,.21.9,2.68,2.68,0,0,0,.6.75,2.86,2.86,0,0,0,.89.5,3,3,0,0,0,1.09.19,2.94,2.94,0,0,0,1.07-.19,2.8,2.8,0,0,0,.88-.5,2.51,2.51,0,0,0,.6-.75,2.07,2.07,0,0,0,.21-.92Z" transform="translate(-24.81 -33.45)"/><path class="cls-3" d="M203.52,249.45l-3.34,2.41.52,0h.52a12.73,12.73,0,0,1,1.51.08,9.19,9.19,0,0,1,1.44.26,6.24,6.24,0,0,1,1.27.51,3.71,3.71,0,0,1,1,.77,3.38,3.38,0,0,1,.67,1.1,3.89,3.89,0,0,1,.25,1.46v2a2.34,2.34,0,0,1-.28,1.11,2.9,2.9,0,0,1-.77.91,3.69,3.69,0,0,1-1.13.6,4.27,4.27,0,0,1-1.39.23h-10v-1.76h10a2,2,0,0,0,.55-.08,1.43,1.43,0,0,0,.44-.24,1.1,1.1,0,0,0,.3-.35.88.88,0,0,0,.11-.42v-2a1.94,1.94,0,0,0-.35-1.18,2.38,2.38,0,0,0-.91-.74,4.56,4.56,0,0,0-1.28-.39,10.11,10.11,0,0,0-1.45-.11,12.22,12.22,0,0,0-1.35.08c-.45.05-.87.1-1.27.18s-.75.14-1,.22a5.92,5.92,0,0,0-.72.22l-1-1.46,6.12-4.61Z" transform="translate(-24.81 -33.45)"/><path class="cls-3" d="M211.89,251.83a18.31,18.31,0,0,1,3.39.27,7,7,0,0,1,2.29.81,3.3,3.3,0,0,1,1.31,1.31,3.7,3.7,0,0,1,.42,1.79v3.05h2.21v1.76H211.27v-1.76h5.86V256a1.8,1.8,0,0,0-.29-1,2.25,2.25,0,0,0-.93-.76,5.56,5.56,0,0,0-1.63-.47,14.89,14.89,0,0,0-2.39-.16Z" transform="translate(-24.81 -33.45)"/><path class="cls-3" d="M226.4,251.83v7.23h2.21v1.76h-8.07v-1.76h3.69v-7.23Zm-3.06-2.59a.73.73,0,0,1,.09-.35,1.09,1.09,0,0,1,.24-.29,1.31,1.31,0,0,1,.35-.19,1.21,1.21,0,0,1,.43-.07,1.25,1.25,0,0,1,.43.07,1.31,1.31,0,0,1,.35.19,1.28,1.28,0,0,1,.23.29.72.72,0,0,1,.08.35.78.78,0,0,1-.31.63,1.24,1.24,0,0,1-.78.26,1.21,1.21,0,0,1-.43-.07,1.31,1.31,0,0,1-.35-.19.92.92,0,0,1-.24-.28A.73.73,0,0,1,223.34,249.24Z" transform="translate(-24.81 -33.45)"/><path class="cls-3" d="M238.43,260.82H227.64v-1.76h2.21v-3.21a3.45,3.45,0,0,1,.38-1.59,4.2,4.2,0,0,1,1.06-1.28,5.26,5.26,0,0,1,1.57-.85,6.05,6.05,0,0,1,1.93-.3,6.5,6.5,0,0,1,2.46.5l-.86,1.59c-.32-.11-.61-.19-.88-.26a3.29,3.29,0,0,0-.72-.08,3.51,3.51,0,0,0-1.09.17,3,3,0,0,0-.87.48,2.18,2.18,0,0,0-.6.72,1.92,1.92,0,0,0-.22.89v3.22h6.42Z" transform="translate(-24.81 -33.45)"/><path class="cls-3" d="M253.81,248.34v9.6a1,1,0,0,0,.1.44,1.24,1.24,0,0,0,.3.35,1.36,1.36,0,0,0,.44.25,1.91,1.91,0,0,0,.54.08h1v1.76h-1a4.16,4.16,0,0,1-1.38-.23,3.73,3.73,0,0,1-1.13-.62,2.87,2.87,0,0,1-.76-.91,2.3,2.3,0,0,1-.28-1.12v-9.6Z" transform="translate(-24.81 -33.45)"/><path class="cls-3" d="M255.24,259.06h2.39a3.41,3.41,0,0,1-.14-.55,3.69,3.69,0,0,1,0-.58v-2a3.51,3.51,0,0,1,.38-1.59,4.28,4.28,0,0,1,1.07-1.3,5.32,5.32,0,0,1,1.57-.88,5.86,5.86,0,0,1,3.85,0,5.21,5.21,0,0,1,1.58.9,4.28,4.28,0,0,1,1.06,1.31,3.27,3.27,0,0,1,.39,1.55v2a3.32,3.32,0,0,1-.39,1.57,4.25,4.25,0,0,1-1.06,1.3,5.09,5.09,0,0,1-1.58.9,5.52,5.52,0,0,1-1.91.33,5.84,5.84,0,0,1-2-.32,5,5,0,0,1-1.57-.91h-3.64Zm7.16-5.47a3,3,0,0,0-1.09.19,3,3,0,0,0-.89.5,2.47,2.47,0,0,0-.59.74,2.07,2.07,0,0,0-.22.91v2a2.08,2.08,0,0,0,.22.92,2.64,2.64,0,0,0,.59.75,3,3,0,0,0,.89.5,3.19,3.19,0,0,0,2.17,0,3.1,3.1,0,0,0,.89-.5,2.68,2.68,0,0,0,.6-.75,2,2,0,0,0,.21-.9v-2A2,2,0,0,0,265,255a2.43,2.43,0,0,0-.6-.75,3.38,3.38,0,0,0-.89-.51A3,3,0,0,0,262.4,253.59Z" transform="translate(-24.81 -33.45)"/><path class="cls-3" d="M291.9,251.84v1.57a12,12,0,0,1,1.18-.64,9.65,9.65,0,0,1,1.3-.49,10.77,10.77,0,0,1,1.36-.33,8.75,8.75,0,0,1,1.34-.11,7,7,0,0,1,1.8.22,4.13,4.13,0,0,1,1.49.72,3.42,3.42,0,0,1,1,1.29,4.55,4.55,0,0,1,.37,1.95v3H304v1.76h-12.1a3.24,3.24,0,0,1-.67,1.51,4.45,4.45,0,0,1-1.3,1.09,6.75,6.75,0,0,1-1.71.66,8.85,8.85,0,0,1-1.93.22,9.1,9.1,0,0,1-2.08-.25,6.34,6.34,0,0,1-1.82-.76,4.46,4.46,0,0,1-1.29-1.27,3.19,3.19,0,0,1-.49-1.78v-6.77h2.17v6.77a1.72,1.72,0,0,0,.3,1,2.42,2.42,0,0,0,.8.72,4.28,4.28,0,0,0,1.12.43,5.54,5.54,0,0,0,1.29.14,5.46,5.46,0,0,0,1.28-.14,4.14,4.14,0,0,0,1.12-.43,2.39,2.39,0,0,0,.79-.72,1.73,1.73,0,0,0,.31-1v-8.4Zm0,7.22h7.68V256a2.75,2.75,0,0,0-.2-1.13,2,2,0,0,0-.54-.74,2.19,2.19,0,0,0-.8-.42,3.32,3.32,0,0,0-1-.13,7.12,7.12,0,0,0-1.19.11,11.5,11.5,0,0,0-1.19.3,7.46,7.46,0,0,0-1.08.46,4.86,4.86,0,0,0-.89.57,2.74,2.74,0,0,0-.6.64,1.18,1.18,0,0,0-.23.67Zm2.74-9.82a.73.73,0,0,1,.09-.35.81.81,0,0,1,.24-.29,1.31,1.31,0,0,1,.35-.19,1.21,1.21,0,0,1,.43-.07,1.25,1.25,0,0,1,.43.07,1.31,1.31,0,0,1,.35.19,1.09,1.09,0,0,1,.24.29.73.73,0,0,1,0,.7.92.92,0,0,1-.24.28,1.31,1.31,0,0,1-.35.19,1.25,1.25,0,0,1-.43.07,1.21,1.21,0,0,1-.43-.07,1.31,1.31,0,0,1-.35-.19.71.71,0,0,1-.24-.28A.73.73,0,0,1,294.64,249.24Z" transform="translate(-24.81 -33.45)"/><path class="cls-3" d="M317.28,260.82H303v-1.76h4.33a8.29,8.29,0,0,1-.93-1,5.37,5.37,0,0,1-.74-1.22,6,6,0,0,1-.31-.87,3.87,3.87,0,0,1-.11-.89,3.32,3.32,0,0,1,.25-1.25,2.59,2.59,0,0,1,.83-1,4.32,4.32,0,0,1,1.51-.7,9,9,0,0,1,2.32-.25,8.69,8.69,0,0,1,2.34.26,4.21,4.21,0,0,1,1.52.7,2.56,2.56,0,0,1,.83,1,3.12,3.12,0,0,1,.25,1.26,3.55,3.55,0,0,1-.1.86,5.17,5.17,0,0,1-.28.84A5,5,0,0,1,314,258a11.51,11.51,0,0,1-.93,1h4.21Zm-9.58-4.6a5.3,5.3,0,0,0,.52.89,10,10,0,0,0,.67.77c.24.23.47.44.7.62s.44.34.62.46c.18-.12.39-.27.62-.45a7.71,7.71,0,0,0,.69-.62,7.13,7.13,0,0,0,.65-.77,3.7,3.7,0,0,0,.5-.89,2.69,2.69,0,0,0,.26-1.14,1.21,1.21,0,0,0-.14-.58,1.18,1.18,0,0,0-.47-.47,2.6,2.6,0,0,0-.85-.33,6,6,0,0,0-1.3-.12,5.93,5.93,0,0,0-1.3.12,2.55,2.55,0,0,0-.84.31,1.24,1.24,0,0,0-.47.47,1.26,1.26,0,0,0-.14.57,2.38,2.38,0,0,0,.08.58A2.86,2.86,0,0,0,307.7,256.22Z" transform="translate(-24.81 -33.45)"/><path class="cls-3" d="M322.19,251.83v6.1a2.45,2.45,0,0,1-.28,1.13,3,3,0,0,1-.77.91,3.68,3.68,0,0,1-1.12.62,4.21,4.21,0,0,1-1.38.23h-2.32v-1.76h2.32a1.78,1.78,0,0,0,.53-.08,1.26,1.26,0,0,0,.44-.25,1.1,1.1,0,0,0,.3-.35,1,1,0,0,0,.11-.45v-6.1ZM320,263.4a.7.7,0,0,1,.09-.35.92.92,0,0,1,.24-.28.89.89,0,0,1,.36-.19,1.32,1.32,0,0,1,1.21.19.79.79,0,0,1,.32.63.67.67,0,0,1-.09.34.92.92,0,0,1-.23.29,1,1,0,0,1-.36.2,1.33,1.33,0,0,1-.85,0,1,1,0,0,1-.36-.2,1,1,0,0,1-.24-.29A.67.67,0,0,1,320,263.4Z" transform="translate(-24.81 -33.45)"/></svg>