<svg xmlns="http://www.w3.org/2000/svg" width="812.505" height="604.631" viewBox="0 0 812.505 604.631">
  <g id="Group_16" data-name="Group 16" transform="translate(-188.626 -498.288)">
    <g id="Group_13" data-name="Group 13" transform="translate(188.626 498.288)">
      <g id="Group_12" data-name="Group 12">
        <g id="Group_8" data-name="Group 8" transform="translate(359.386)">
          <path id="Path_5" data-name="Path 5" d="M361.68,499.461c11.292-2.422,23.63-1.21,33.686,4.751C415,514.247,424.5,539.694,417.058,560.27c-6.424,19.314-26.563,33.081-46.945,31.214C345.491,591.29,324.7,568,325.907,543.667,326.247,523.043,341.636,504.188,361.68,499.461Zm2.81,19.293c-17.038,5.212-25.107,27.726-14.2,42.169,11.319,17.282,41.37,13.864,47.988-5.984C407.387,534.726,385.237,511.387,364.49,518.754Z" transform="translate(-325.857 -498.288)" fill="#2dcdcb"/>
        </g>
        <g id="Group_9" data-name="Group 9" transform="translate(58.283 41.211)">
          <path id="Path_6" data-name="Path 6" d="M247.576,515.236c27.121-6.785,56.931,15.9,56.4,44.062,1.7,18.782-10.687,36.716-27.435,44.35-9.354,4.507-20.165,4.41-30.2,2.739-20.794-4.9-36.693-25.691-35.383-47.139C211.054,538.381,227.29,519.455,247.576,515.236Zm4.46,18.832c-13.573,2.108-23.412,16.263-21.692,29.69,1.092,13.741,13.814,25.471,27.775,24.332,16.941.775,30.269-17.232,26.029-33.4C281.385,540.515,266.164,530.724,252.036,534.068Z" transform="translate(-210.881 -514.025)" fill="#2dcdcb"/>
        </g>
        <g id="Group_10" data-name="Group 10" transform="translate(660.829 41.185)">
          <path id="Path_7" data-name="Path 7" d="M478.191,515.034c21.909-4.895,45.733,8.312,53.317,29.373,6.521,17.208,1.988,38.172-11.827,50.533a44.084,44.084,0,0,1-32.741,12.625c-24.308.6-46.534-21.448-45.9-45.78C439.681,539.8,456.887,519.227,478.191,515.034Zm1.55,19.7c-20.623,5.088-26.319,35.747-8.7,47.744,15.341,13.207,42.1,2.108,43.7-18.057C518.057,545.572,497.725,528.655,479.741,534.738Z" transform="translate(-440.962 -514.015)" fill="#2dcdcb"/>
        </g>
        <g id="Group_11" data-name="Group 11" transform="translate(0 104.366)">
          <path id="Path_8" data-name="Path 8" d="M466.462,540.421c40.595-4,83.515-4.554,121.056,13.744,6.374,4.167,13.453.822,19.534-2.037A175.816,175.816,0,0,1,655.4,539.211c64.175-4.363,132.06,5.162,186.4,41.781,10.47,6.084,18.953,15.268,29.446,21.084a180.365,180.365,0,0,1,80.123-3.124c17.69,3.538,36.232,12.117,44.981,28.791,9.622,18.225,4.457,44.059-13.112,55.645-10.179,6.2-22.417,1.333-32.353-2.91-24.455-11.366-46.1-27.7-67.715-43.625-5.6-3.852-10.42-9.064-16.747-11.68-29.907,11.753-51.864,36.96-70.816,61.993-26.1,33.592-38.583,77.965-32.233,120.113,8.53-6.956,14.469-16.336,20.964-25.06,10.567-14.4,20.5-29.3,32.427-42.656,6.324-6.762,13.28-13.985,22.661-16.116,6.712-.922,12.361,4.6,14.59,10.47,7.684,26.563-9.815,53.511-2.158,79.953,8.846-8.506,12.845-20.406,17.523-31.434,9.548-23.363,15.535-48.011,19.243-72.9,1.357-7.076,9.137-6.859,14.736-6.228,2.349,4.046,4.918,8.456,3.682,13.353-4.143,31.408-13.885,62.019-27.239,90.688-5.479,10.567-12.191,22.59-24.407,26.175-11.7,2.836-21.011-8.433-23.46-18.732-6.251-24.091,5.769-47.867,4.871-72.055-15.776,21.451-30.9,43.384-46.822,64.712-5.162,6.833-10.931,13.5-18.321,18-6.618,3.611-16,3.37-21.281-2.5-5.887-6.374-7.149-15.412-7.948-23.7-2.132-38.61,7.029-78.162,28.4-110.612,20.7-30.706,45.612-59.958,78.741-77.675a199.931,199.931,0,0,0-33.833-22.928c.194-.7.581-2.132.752-2.836A53.7,53.7,0,0,1,802,581.282c-.338-3.685-.678-7.32-1.019-10.978-.361,3.368-.7,6.738-.992,10.106-39.529-18.953-84.46-23.289-127.794-22.708-19.17-.147-37.978,4.677-55.839,11.269,6.545,6.518,14.639,11.2,21.328,17.57,30.392,27,54.82,62.821,61.412,103.536,6.521,39.94,5.115,81.818-7.681,120.4-4.9,12.675-11,28.163-25.28,32.429-12.238,3.562-23.313-5.843-28.936-15.852-12.992-22.588-17.693-48.689-22.831-73.917-3.1-14.446-3.9-29.69-10.347-43.19-2.4-6.471-11.295-6.01-16.263-3.2-7.974,12.141-8.556,27.265-11.416,41.126-5.211,25.885-9.863,52.518-22.03,76.221-5.623,10.132-15.632,21.886-28.574,19.146-12.675-2.011-19.581-14.493-24.4-25.107-12.531-30.441-15.171-64.031-14.226-96.627,1.454-23.559,5.015-47.453,15-69.048,15.585-33.445,41.079-61.826,71.424-82.643-14.445-7.126-30.562-10.4-46.484-11.78-48.713-1.938-99.246,2.883-143.426,24.866-15.729,7.27-29.931,17.279-43.745,27.605,16.818,10.056,32.741,21.836,46.023,36.328,16.7,18.371,32.571,37.952,43.381,60.469,13.233,26.029,18.371,55.5,18.371,84.507-.461,10.132-.849,21.231-7.149,29.713-5.235,7.634-16.651,7.757-23.85,3.03-7.584-5.162-13.4-12.408-18.806-19.7C385.974,788.425,374,772.065,362.3,755.511c-2.619-3.295-4.751-7.658-9.525-8.189.825,22.9,10.955,45.756,4.58,68.611-2.5,9.692-11.2,19.581-22.127,17.69-12-2.689-18.782-14.152-24.211-24.161A327.6,327.6,0,0,1,283.8,724.344a59.346,59.346,0,0,1-.411-18.175c5.282-3.564,11.68-3.879,16.915-.05,3.928,24.793,9.258,49.441,18.589,72.827,4.774,11.732,9.234,23.97,17.255,33.956,4.219-.388,2.91-5.963,3.782-8.87.849-22.855-9.572-45.369-4.7-68.25,1.6-9.3,12.555-15.776,20.987-10.323,15.027,8.749,24.622,23.873,35.069,37.274,11.586,14.954,20.987,31.845,35.022,44.717,3.779-16.313,1.4-33.155-.728-49.515-7.417-44.958-36.475-82.863-69.483-112.744-10.253-8.048-21.181-17.329-34.22-19.754-25.3,18.445-49.975,38.222-77.992,52.544-9.428,4.46-19.728,9.087-30.392,7.61-23.048-8.145-31.5-38.827-19.267-59.112,9.5-16.771,28.695-24.669,46.822-27.919a187.693,187.693,0,0,1,79.081,3.831C360.333,566.232,412.851,545.292,466.462,540.421Zm50.774,125.856c-10.4,27.482-12.094,57.513-10.373,86.618,2.229,21.181,4.483,43.017,13.765,62.48,1.964,3.368,3.952,8.529,8.823,7.61,4.266.338,5.526-4.29,7.44-7.152,15.221-30.85,18.031-65.678,25.714-98.759,3.368-11.827,7.755-26.61,20.891-30.682C594.4,685.3,608.6,683,616.285,692.913c9.938,13.086,12.337,29.931,15.244,45.659,4.29,23.63,8.846,47.4,17.716,69.8,2.182,5.259,4.751,10.567,8.967,14.519,6.351,1.624,9.742-4.583,11.876-9.4,7.948-18.371,10.444-38.463,12.555-58.214,2.325-31.313,1.016-63.787-11.829-92.919-15.826-34.681-43.09-63.764-76-82.836C560.86,599.436,532.456,629.778,517.236,666.277Zm-307.09-28.815c-5.209,10.664-.411,22.635,6.471,31.264,30.829-10.714,56.13-32.162,82.96-50.1-14.954-4.727-30.973-3.03-46.364-2.4C237.339,618.192,218.484,622.168,210.145,637.462Zm680.293-19.316c22.03,16.116,44.012,32.67,68.538,44.931,4.533,2.425,9.622,3.394,14.639,4.413,7.32-8.532,11.075-21.448,4.968-31.651-7.948-12.531-23.41-16.724-37.2-18.856C924.491,614.995,907.113,614.316,890.438,618.145Z" transform="translate(-188.626 -538.14)" fill="#2dcdcb"/>
        </g>
      </g>
    </g>
    <g id="Group_14" data-name="Group 14" transform="translate(193.33 828.858)">
      <path id="Path_9" data-name="Path 9" d="M234.576,632.066H190.422v-7.55h44.154Zm0,15.1H190.422v-7.55h44.154ZM222.917,666.04V774.565a13.29,13.29,0,0,0,.909,4.929,12.988,12.988,0,0,0,2.483,4.036,11.684,11.684,0,0,0,3.682,2.726,10.333,10.333,0,0,0,4.491,1h8.506V807.07h-8.506a26.47,26.47,0,0,1-11.518-2.569,30.719,30.719,0,0,1-9.462-6.971,32.93,32.93,0,0,1-6.4-10.329,34.06,34.06,0,0,1-2.341-12.636V666.04Z" transform="translate(-190.422 -624.516)" fill="#fe950c"/>
      <path id="Path_10" data-name="Path 10" d="M207.429,686.657h41v19.817h-41Z" transform="translate(-162.89 -523.92)" fill="#fe950c"/>
      <path id="Path_11" data-name="Path 11" d="M220.02,686.657h41v19.817h-41Z" transform="translate(-142.508 -523.92)" fill="#fe950c"/>
      <path id="Path_12" data-name="Path 12" d="M232.61,686.657h41v19.817h-41Z" transform="translate(-122.126 -523.92)" fill="#fe950c"/>
      <path id="Path_13" data-name="Path 13" d="M245.2,686.657h41v19.817h-41Z" transform="translate(-101.744 -523.92)" fill="#fe950c"/>
      <path id="Path_14" data-name="Path 14" d="M257.792,686.657h41v19.817h-41Z" transform="translate(-81.361 -523.92)" fill="#fe950c"/>
      <path id="Path_15" data-name="Path 15" d="M270.383,686.657h41v19.817h-41Z" transform="translate(-60.978 -523.92)" fill="#fe950c"/>
      <path id="Path_16" data-name="Path 16" d="M282.974,686.657h41v19.817h-41Z" transform="translate(-40.595 -523.92)" fill="#fe950c"/>
      <path id="Path_17" data-name="Path 17" d="M295.564,686.657h41v19.817h-41Z" transform="translate(-20.214 -523.92)" fill="#fe950c"/>
      <path id="Path_18" data-name="Path 18" d="M308.155,686.657h41v19.817h-41Z" transform="translate(0.169 -523.92)" fill="#fe950c"/>
      <path id="Path_19" data-name="Path 19" d="M440.346,756.967H320.783V737.15H357.1a102.537,102.537,0,0,1-7.833-11.52,71.378,71.378,0,0,1-6.2-13.822,73.642,73.642,0,0,1-2.548-9.9,55.375,55.375,0,0,1-.911-10,46.461,46.461,0,0,1,2.1-14.084,29.03,29.03,0,0,1,6.929-11.625,33.311,33.311,0,0,1,12.662-7.854q7.837-2.879,19.4-2.881,11.659,0,19.591,2.933a33.406,33.406,0,0,1,12.762,7.959,29.477,29.477,0,0,1,6.929,11.73,47.413,47.413,0,0,1,2.1,14.241,55.281,55.281,0,0,1-.859,9.739,82.7,82.7,0,0,1-2.294,9.53,63.836,63.836,0,0,1-6.068,13.927,116.76,116.76,0,0,1-7.791,11.625h35.268Zm-80.288-52.008a60.956,60.956,0,0,0,4.434,10.064A80.048,80.048,0,0,0,375.938,730.8q2.907,3.1,5.2,5.191,2.29-2.094,5.2-5.138a67.707,67.707,0,0,0,5.772-6.971,79.406,79.406,0,0,0,5.437-8.65,53.178,53.178,0,0,0,4.2-10.067,41.487,41.487,0,0,0,2.192-12.9,18.078,18.078,0,0,0-1.192-6.552,13.324,13.324,0,0,0-3.91-5.4,20.049,20.049,0,0,0-7.152-3.672,37.747,37.747,0,0,0-10.923-1.362,38.6,38.6,0,0,0-10.873,1.309,19.46,19.46,0,0,0-7.058,3.567,13.206,13.206,0,0,0-3.863,5.293,17.413,17.413,0,0,0-1.192,6.4,35.393,35.393,0,0,0,.621,6.552A52.942,52.942,0,0,0,360.058,704.959Z" transform="translate(20.611 -574.413)" fill="#fe950c"/>
      <path id="Path_20" data-name="Path 20" d="M363.373,686.657h41v19.817h-41Z" transform="translate(89.558 -523.92)" fill="#fe950c"/>
      <path id="Path_21" data-name="Path 21" d="M375.963,686.657h41v19.817h-41Z" transform="translate(109.939 -523.92)" fill="#fe950c"/>
      <path id="Path_22" data-name="Path 22" d="M388.554,686.657h41v19.817h-41Z" transform="translate(130.322 -523.92)" fill="#fe950c"/>
      <path id="Path_23" data-name="Path 23" d="M401.145,686.657h41v19.817h-41Z" transform="translate(150.705 -523.92)" fill="#fe950c"/>
      <path id="Path_24" data-name="Path 24" d="M413.736,686.657h41v19.817h-41Z" transform="translate(171.088 -523.92)" fill="#fe950c"/>
      <path id="Path_25" data-name="Path 25" d="M426.327,686.657h41v19.817h-41Z" transform="translate(191.47 -523.92)" fill="#fe950c"/>
      <path id="Path_26" data-name="Path 26" d="M438.917,686.657h41v19.817h-41Z" transform="translate(211.851 -523.92)" fill="#fe950c"/>
      <path id="Path_27" data-name="Path 27" d="M451.509,737.15h19.974a49.391,49.391,0,0,1-1.147-6.233,55.2,55.2,0,0,1-.382-6.544V701.754a49.4,49.4,0,0,1,3.258-17.96,47.2,47.2,0,0,1,8.907-14.713,42.724,42.724,0,0,1,13.175-9.949,36.342,36.342,0,0,1,16.14-3.667,35.645,35.645,0,0,1,16.1,3.771A43.316,43.316,0,0,1,540.746,669.4a48.669,48.669,0,0,1,8.909,14.77,48.171,48.171,0,0,1,3.258,17.6v22.839a48.486,48.486,0,0,1-3.253,17.7,48,48,0,0,1-8.9,14.721,43.6,43.6,0,0,1-13.2,10.109,35.52,35.52,0,0,1-16.072,3.771,36.883,36.883,0,0,1-16.41-3.669,40.7,40.7,0,0,1-13.152-10.276h-30.42Zm59.924-61.865a20.315,20.315,0,0,0-9.127,2.1,23.942,23.942,0,0,0-7.406,5.67,26.725,26.725,0,0,0-4.971,8.4,28.968,28.968,0,0,0-1.818,10.289v22.682a29.245,29.245,0,0,0,1.818,10.394,27.389,27.389,0,0,0,4.971,8.453A23.518,23.518,0,0,0,502.307,749a20.674,20.674,0,0,0,18.159,0,24.164,24.164,0,0,0,7.456-5.722,27.044,27.044,0,0,0,5.018-8.453,28.758,28.758,0,0,0,1.815-10.185V701.744a28.343,28.343,0,0,0-1.815-10.13,27.146,27.146,0,0,0-5.018-8.4,24.909,24.909,0,0,0-7.456-5.774A19.735,19.735,0,0,0,511.433,675.285Z" transform="translate(232.236 -574.413)" fill="#fe950c"/>
    </g>
    <g id="Group_15" data-name="Group 15" transform="translate(208.142 1060.717)">
      <path id="Path_28" data-name="Path 28" d="M238.333,740.2h-9.472a12.969,12.969,0,0,1-4.125,2.38,15,15,0,0,1-5.112.851,14.459,14.459,0,0,1-5.049-.875,13.972,13.972,0,0,1-4.125-2.344,11.165,11.165,0,0,1-2.779-3.415,8.76,8.76,0,0,1-1.016-4.106v-.461a8.045,8.045,0,0,0-2.3.5,4.627,4.627,0,0,0-1.508.945,3.365,3.365,0,0,0-.835,1.291,4.475,4.475,0,0,0-.254,1.516v12.83h-5.678V736.49a9.429,9.429,0,0,1,.581-3.313,7.138,7.138,0,0,1,1.854-2.758,9.638,9.638,0,0,1,3.271-1.93,16.149,16.149,0,0,1,4.871-.862v-.217a8.711,8.711,0,0,1,1.016-4.08,11.305,11.305,0,0,1,2.784-3.423,13.766,13.766,0,0,1,4.13-2.354,14.478,14.478,0,0,1,5.054-.875,14.775,14.775,0,0,1,5.028.849,13.527,13.527,0,0,1,4.112,2.307,11.011,11.011,0,0,1,2.768,3.41,8.87,8.87,0,0,1,1.019,4.159v5.243a8.979,8.979,0,0,1-.482,2.959h6.249Zm-11.447-12.8a5.22,5.22,0,0,0-.566-2.386,6.2,6.2,0,0,0-1.55-1.946,7.641,7.641,0,0,0-2.312-1.312,8.11,8.11,0,0,0-2.818-.487,8.022,8.022,0,0,0-2.847.5,7.914,7.914,0,0,0-2.328,1.338,6.317,6.317,0,0,0-1.566,1.946,5.1,5.1,0,0,0-.566,2.349v5.3a5.159,5.159,0,0,0,.566,2.359,6.246,6.246,0,0,0,1.566,1.959,7.656,7.656,0,0,0,2.328,1.325,8.2,8.2,0,0,0,2.847.487,8.107,8.107,0,0,0,2.818-.487,7.452,7.452,0,0,0,2.312-1.325,6.309,6.309,0,0,0,1.55-1.959,5.262,5.262,0,0,0,.566-2.409Z" transform="translate(-196.078 -707.18)" fill="#4f5759"/>
      <path id="Path_29" data-name="Path 29" d="M217.023,730.669a6.616,6.616,0,0,1,.539-2.658,7.485,7.485,0,0,1,1.508-2.255,9.13,9.13,0,0,1,2.273-1.7,10.585,10.585,0,0,1,2.828-1.008,9.671,9.671,0,0,1,2.48-2.642,16.531,16.531,0,0,1,3.559-2.014,22.851,22.851,0,0,1,8.676-1.723,21,21,0,0,1,5.083.608,12.786,12.786,0,0,1,4.337,1.93,9.857,9.857,0,0,1,3.022,3.407,10.386,10.386,0,0,1,1.137,5.026v5.12a6.039,6.039,0,0,1-.736,2.915,7.586,7.586,0,0,1-2,2.365,9.985,9.985,0,0,1-2.978,1.592,11.2,11.2,0,0,1-3.619.581H211.254v-4.593h5.769ZM222.7,735.6h7.173v-4.989a2.886,2.886,0,0,0-.27-1.236,2.944,2.944,0,0,0-.762-1.006,3.725,3.725,0,0,0-1.15-.668,4.219,4.219,0,0,0-2.81,0,3.462,3.462,0,0,0-1.137.681,3.345,3.345,0,0,0-.762,1.029,2.918,2.918,0,0,0-.283,1.273Zm12.851.024h7.561a4.33,4.33,0,0,0,1.419-.23,4.182,4.182,0,0,0,1.181-.618,2.868,2.868,0,0,0,.791-.911,2.291,2.291,0,0,0,.283-1.105v-5.127a5.934,5.934,0,0,0-.67-2.915,5.822,5.822,0,0,0-1.762-1.98,7.416,7.416,0,0,0-2.527-1.118,12.3,12.3,0,0,0-2.959-.354,16.15,16.15,0,0,0-2.344.173,17.445,17.445,0,0,0-2.257.479,13.283,13.283,0,0,0-2.032.759,8.114,8.114,0,0,0-1.673,1.042,9.27,9.27,0,0,1,2.016,1.2,8.549,8.549,0,0,1,1.584,1.613,7.053,7.053,0,0,1,1.032,1.925,6.52,6.52,0,0,1,.359,2.147Z" transform="translate(-171.511 -707.194)" fill="#4f5759"/>
      <path id="Path_30" data-name="Path 30" d="M232.484,716.669a47.255,47.255,0,0,1,8.875.715,18.74,18.74,0,0,1,6.015,2.113,8.988,8.988,0,0,1,3.438,3.433,9.727,9.727,0,0,1,1.095,4.682v8.006h5.769v4.593H230.871v-4.593H246.23V727.6a4.808,4.808,0,0,0-.778-2.71,5.964,5.964,0,0,0-2.433-1.993,15.305,15.305,0,0,0-4.258-1.226,40.8,40.8,0,0,0-6.277-.414Z" transform="translate(-139.754 -707.194)" fill="#4f5759"/>
      <path id="Path_31" data-name="Path 31" d="M255.5,722.315v18.95h5.8v4.593H240.137v-4.593h9.682v-18.95Zm-8.008-6.778a1.926,1.926,0,0,1,.225-.911,2.445,2.445,0,0,1,.629-.754,3.021,3.021,0,0,1,.924-.511,3.567,3.567,0,0,1,2.242,0,2.866,2.866,0,0,1,.911.511,2.543,2.543,0,0,1,.613.754,1.923,1.923,0,0,1,.223.911,2.052,2.052,0,0,1-.835,1.65,3.108,3.108,0,0,1-2.032.681,3.409,3.409,0,0,1-1.121-.181,3.171,3.171,0,0,1-.924-.5,2.259,2.259,0,0,1-.629-.741A1.915,1.915,0,0,1,247.488,715.538Z" transform="translate(-124.754 -712.84)" fill="#4f5759"/>
      <path id="Path_32" data-name="Path 32" d="M275.485,740.213H247.246V735.62h5.767V727.2a8.817,8.817,0,0,1,1.016-4.161,10.716,10.716,0,0,1,2.766-3.347,13.124,13.124,0,0,1,4.109-2.221,15.611,15.611,0,0,1,5.049-.8,17.238,17.238,0,0,1,6.455,1.3l-2.271,4.188a20.127,20.127,0,0,0-2.286-.681,7.749,7.749,0,0,0-1.9-.22,8.684,8.684,0,0,0-2.839.45,7.414,7.414,0,0,0-2.3,1.252,6.033,6.033,0,0,0-1.553,1.883,4.952,4.952,0,0,0-.568,2.344v8.43h16.795Z" transform="translate(-113.245 -707.195)" fill="#4f5759"/>
      <path id="Path_33" data-name="Path 33" d="M276.917,713.181v25.146a2.4,2.4,0,0,0,.283,1.142,3.044,3.044,0,0,0,.778.935,3.811,3.811,0,0,0,1.15.631,4.2,4.2,0,0,0,1.406.23h2.658v4.593h-2.658a10.714,10.714,0,0,1-3.6-.6,9.885,9.885,0,0,1-2.959-1.616,7.686,7.686,0,0,1-2-2.391,6.143,6.143,0,0,1-.731-2.928V713.181Z" transform="translate(-74.404 -712.84)" fill="#4f5759"/>
      <path id="Path_34" data-name="Path 34" d="M274.845,735.6h6.246a8.746,8.746,0,0,1-.359-1.443,9.313,9.313,0,0,1-.12-1.516V727.4a8.87,8.87,0,0,1,1.019-4.159,10.924,10.924,0,0,1,2.786-3.41,13.809,13.809,0,0,1,4.117-2.307,14.766,14.766,0,0,1,5.049-.849,14.431,14.431,0,0,1,5.031.875,13.827,13.827,0,0,1,4.135,2.354,11.3,11.3,0,0,1,2.784,3.423,8.633,8.633,0,0,1,1.019,4.078V732.7a8.708,8.708,0,0,1-1.016,4.1,11.133,11.133,0,0,1-2.784,3.412,14,14,0,0,1-4.127,2.341,14.391,14.391,0,0,1-5.026.875,15,15,0,0,1-5.13-.851,12.991,12.991,0,0,1-4.112-2.38h-9.512Zm18.738-14.333a8.242,8.242,0,0,0-2.855.487,7.67,7.67,0,0,0-2.318,1.312,6.209,6.209,0,0,0-1.553,1.946,5.223,5.223,0,0,0-.568,2.386v5.253a5.264,5.264,0,0,0,.568,2.409,6.317,6.317,0,0,0,1.553,1.959,7.48,7.48,0,0,0,2.318,1.325,8.24,8.24,0,0,0,2.855.487,8.147,8.147,0,0,0,2.823-.487,7.639,7.639,0,0,0,2.331-1.325,6.18,6.18,0,0,0,1.569-1.959,5.163,5.163,0,0,0,.568-2.359v-5.3a5.1,5.1,0,0,0-.568-2.349,6.249,6.249,0,0,0-1.569-1.946,7.894,7.894,0,0,0-2.331-1.338A7.975,7.975,0,0,0,293.583,721.271Z" transform="translate(-68.567 -707.18)" fill="#4f5759"/>
      <path id="Path_35" data-name="Path 35" d="M335.6,745.859h-5.887a8.484,8.484,0,0,1-1.778,4,12,12,0,0,1-3.407,2.868,16.8,16.8,0,0,1-4.5,1.736,21.933,21.933,0,0,1-5.02.584,22.564,22.564,0,0,1-5.455-.665,15.858,15.858,0,0,1-4.766-2.006,10.9,10.9,0,0,1-3.363-3.344,8.6,8.6,0,0,1-1.268-4.7V726.639h5.678v17.688a4.612,4.612,0,0,0,.791,2.684,6.545,6.545,0,0,0,2.077,1.922,10.155,10.155,0,0,0,2.928,1.139,15.076,15.076,0,0,0,3.378.377,14.918,14.918,0,0,0,3.347-.377,10.081,10.081,0,0,0,2.928-1.142,6.507,6.507,0,0,0,2.077-1.92,4.634,4.634,0,0,0,.794-2.687V713.181h5.678v28.084H335.6Z" transform="translate(-27.583 -712.84)" fill="#4f5759"/>
      <path id="Path_36" data-name="Path 36" d="M338.257,716.29l-8.755,6.332c.458-.031.911-.055,1.359-.073s.9-.023,1.362-.023a37.826,37.826,0,0,1,3.973.207,22.767,22.767,0,0,1,3.766.7,16.469,16.469,0,0,1,3.331,1.309,9.823,9.823,0,0,1,2.661,2.027,8.929,8.929,0,0,1,1.762,2.875,10.542,10.542,0,0,1,.644,3.824v5.143a6.036,6.036,0,0,1-.733,2.915,7.559,7.559,0,0,1-2,2.365,9.924,9.924,0,0,1-2.972,1.592,11.281,11.281,0,0,1-3.645.581h-26.27v-4.593h26.27a4.413,4.413,0,0,0,1.448-.23,3.934,3.934,0,0,0,1.168-.618,2.95,2.95,0,0,0,.775-.911,2.291,2.291,0,0,0,.283-1.105v-5.151a5.055,5.055,0,0,0-.911-3.1,6.416,6.416,0,0,0-2.388-1.946,11.86,11.86,0,0,0-3.363-1.006,24.519,24.519,0,0,0-3.795-.293,31.84,31.84,0,0,0-3.528.2q-1.764.192-3.318.471t-2.763.6c-.807.209-1.43.4-1.867.558l-2.572-3.813,16.019-12.075Z" transform="translate(-7.227 -713.051)" fill="#4f5759"/>
      <path id="Path_37" data-name="Path 37" d="M330.23,726.2a2.064,2.064,0,0,1,.838-1.652,3.118,3.118,0,0,1,2.032-.681,3.344,3.344,0,0,1,1.121.183,3.161,3.161,0,0,1,.924.5,2.284,2.284,0,0,1,.629.741,1.956,1.956,0,0,1,0,1.823,2.4,2.4,0,0,1-.629.752,3.018,3.018,0,0,1-.924.511,3.518,3.518,0,0,1-2.242,0,2.863,2.863,0,0,1-.911-.511,2.5,2.5,0,0,1-.613-.752A1.924,1.924,0,0,1,330.23,726.2Z" transform="translate(21.093 -695.54)" fill="#4f5759"/>
      <path id="Path_38" data-name="Path 38" d="M336.325,726.2a2.064,2.064,0,0,1,.838-1.652,3.111,3.111,0,0,1,2.03-.681,3.36,3.36,0,0,1,1.123.183,3.2,3.2,0,0,1,.924.5,2.285,2.285,0,0,1,.628.741,1.976,1.976,0,0,1,0,1.823,2.4,2.4,0,0,1-.628.752,3.05,3.05,0,0,1-.924.511,3.518,3.518,0,0,1-2.242,0,2.835,2.835,0,0,1-.911-.511,2.5,2.5,0,0,1-.613-.752A1.924,1.924,0,0,1,336.325,726.2Z" transform="translate(30.959 -695.54)" fill="#4f5759"/>
      <path id="Path_39" data-name="Path 39" d="M384.677,740.2H375.2a12.956,12.956,0,0,1-4.122,2.38,15.011,15.011,0,0,1-5.112.851,14.449,14.449,0,0,1-5.049-.875,13.973,13.973,0,0,1-4.125-2.344,11.129,11.129,0,0,1-2.779-3.415A8.729,8.729,0,0,1,353,732.69v-.461a8.047,8.047,0,0,0-2.3.5,4.6,4.6,0,0,0-1.508.945,3.335,3.335,0,0,0-.835,1.291,4.476,4.476,0,0,0-.257,1.516v12.83h-5.678V736.49a9.432,9.432,0,0,1,.584-3.313,7.138,7.138,0,0,1,1.854-2.758,9.612,9.612,0,0,1,3.271-1.93,16.135,16.135,0,0,1,4.871-.862v-.217a8.68,8.68,0,0,1,1.016-4.08,11.266,11.266,0,0,1,2.784-3.423,13.785,13.785,0,0,1,4.127-2.354,14.493,14.493,0,0,1,5.057-.875,14.75,14.75,0,0,1,5.026.849,13.541,13.541,0,0,1,4.114,2.307,11.011,11.011,0,0,1,2.768,3.41,8.87,8.87,0,0,1,1.019,4.159v5.243a8.981,8.981,0,0,1-.482,2.959h6.249ZM373.23,727.4a5.22,5.22,0,0,0-.566-2.386,6.171,6.171,0,0,0-1.553-1.946,7.6,7.6,0,0,0-2.31-1.312,8.121,8.121,0,0,0-2.818-.487,8.012,8.012,0,0,0-2.847.5,7.881,7.881,0,0,0-2.328,1.338,6.282,6.282,0,0,0-1.566,1.946,5.1,5.1,0,0,0-.566,2.349v5.3a5.162,5.162,0,0,0,.566,2.359,6.212,6.212,0,0,0,1.566,1.959,7.625,7.625,0,0,0,2.328,1.325,8.478,8.478,0,0,0,5.665,0,7.41,7.41,0,0,0,2.31-1.325,6.278,6.278,0,0,0,1.553-1.959,5.262,5.262,0,0,0,.566-2.409Z" transform="translate(40.825 -707.18)" fill="#4f5759"/>
      <path id="Path_40" data-name="Path 40" d="M383.117,716.29l-8.755,6.332c.456-.031.911-.055,1.359-.073s.9-.023,1.359-.023a37.872,37.872,0,0,1,3.975.207,22.819,22.819,0,0,1,3.766.7,16.531,16.531,0,0,1,3.331,1.309,9.809,9.809,0,0,1,2.658,2.027,8.979,8.979,0,0,1,1.765,2.875,10.6,10.6,0,0,1,.642,3.824v5.143a6.036,6.036,0,0,1-.733,2.915,7.586,7.586,0,0,1-2,2.365,9.956,9.956,0,0,1-2.972,1.592,11.3,11.3,0,0,1-3.648.581H357.6v-4.593h26.267a4.428,4.428,0,0,0,1.451-.23,3.952,3.952,0,0,0,1.165-.618,2.949,2.949,0,0,0,.775-.911,2.264,2.264,0,0,0,.285-1.105v-5.151a5.054,5.054,0,0,0-.911-3.1,6.4,6.4,0,0,0-2.391-1.946,11.836,11.836,0,0,0-3.363-1.006,24.492,24.492,0,0,0-3.795-.293,31.841,31.841,0,0,0-3.528.2c-1.173.128-2.281.285-3.315.471s-1.959.388-2.766.6-1.43.4-1.867.558l-2.569-3.813,16.017-12.075Z" transform="translate(65.394 -713.051)" fill="#4f5759"/>
      <path id="Path_41" data-name="Path 41" d="M376.706,716.669a47.274,47.274,0,0,1,8.875.715A18.786,18.786,0,0,1,391.6,719.5a9,9,0,0,1,3.436,3.433,9.728,9.728,0,0,1,1.1,4.682v8.006H401.9v4.593H375.09v-4.593h15.362V727.6a4.829,4.829,0,0,0-.778-2.71,5.991,5.991,0,0,0-2.435-1.993,15.252,15.252,0,0,0-4.258-1.226,40.78,40.78,0,0,0-6.275-.414Z" transform="translate(93.714 -707.194)" fill="#4f5759"/>
      <path id="Path_42" data-name="Path 42" d="M399.718,722.315v18.95h5.8v4.593H384.356v-4.593h9.682v-18.95Zm-8.011-6.778a1.925,1.925,0,0,1,.225-.911,2.444,2.444,0,0,1,.629-.754,3.02,3.02,0,0,1,.924-.511,3.567,3.567,0,0,1,2.242,0,2.866,2.866,0,0,1,.911.511,2.543,2.543,0,0,1,.613.754,1.925,1.925,0,0,1,.225.911,2.055,2.055,0,0,1-.838,1.65,3.107,3.107,0,0,1-2.032.681,3.409,3.409,0,0,1-1.121-.181,3.17,3.17,0,0,1-.924-.5,2.258,2.258,0,0,1-.629-.741A1.914,1.914,0,0,1,391.707,715.538Z" transform="translate(108.714 -712.84)" fill="#4f5759"/>
      <path id="Path_43" data-name="Path 43" d="M419.707,740.213H391.465V735.62h5.767V727.2a8.817,8.817,0,0,1,1.016-4.161,10.717,10.717,0,0,1,2.766-3.347,13.125,13.125,0,0,1,4.109-2.221,15.611,15.611,0,0,1,5.049-.8,17.238,17.238,0,0,1,6.455,1.3l-2.271,4.188a20.119,20.119,0,0,0-2.286-.681,7.748,7.748,0,0,0-1.9-.22,8.7,8.7,0,0,0-2.839.45,7.372,7.372,0,0,0-2.3,1.252,6.042,6.042,0,0,0-1.556,1.883,4.983,4.983,0,0,0-.568,2.344v8.43h16.8Z" transform="translate(120.222 -707.195)" fill="#4f5759"/>
      <path id="Path_44" data-name="Path 44" d="M421.136,713.181v25.146a2.4,2.4,0,0,0,.283,1.142,3.082,3.082,0,0,0,.778.935,3.827,3.827,0,0,0,1.152.631,4.182,4.182,0,0,0,1.4.23h2.658v4.593h-2.658a10.726,10.726,0,0,1-3.6-.6,9.918,9.918,0,0,1-2.959-1.616,7.721,7.721,0,0,1-2-2.391,6.142,6.142,0,0,1-.731-2.928V713.181Z" transform="translate(159.063 -712.84)" fill="#4f5759"/>
      <path id="Path_45" data-name="Path 45" d="M419.064,735.6h6.246a8.734,8.734,0,0,1-.359-1.443,9.6,9.6,0,0,1-.118-1.516V727.4a8.867,8.867,0,0,1,1.016-4.159,10.962,10.962,0,0,1,2.786-3.41,13.792,13.792,0,0,1,4.12-2.307,14.75,14.75,0,0,1,5.047-.849,14.431,14.431,0,0,1,5.031.875,13.794,13.794,0,0,1,4.135,2.354,11.351,11.351,0,0,1,2.786,3.423,8.661,8.661,0,0,1,1.016,4.078V732.7a8.707,8.707,0,0,1-1.016,4.1,11.161,11.161,0,0,1-2.781,3.412,14.037,14.037,0,0,1-4.127,2.341,14.412,14.412,0,0,1-5.026.875,14.988,14.988,0,0,1-5.13-.851,13,13,0,0,1-4.114-2.38h-9.512ZM437.8,721.271a8.243,8.243,0,0,0-2.855.487,7.656,7.656,0,0,0-2.315,1.312,6.217,6.217,0,0,0-1.556,1.946,5.221,5.221,0,0,0-.566,2.386v5.253a5.263,5.263,0,0,0,.566,2.409,6.326,6.326,0,0,0,1.556,1.959,7.467,7.467,0,0,0,2.315,1.325,8.24,8.24,0,0,0,2.855.487,8.148,8.148,0,0,0,2.823-.487,7.672,7.672,0,0,0,2.331-1.325,6.227,6.227,0,0,0,1.571-1.959,5.159,5.159,0,0,0,.566-2.359v-5.3a5.1,5.1,0,0,0-.566-2.349,6.3,6.3,0,0,0-1.571-1.946,8.049,8.049,0,0,0-5.154-1.836Z" transform="translate(164.9 -707.18)" fill="#4f5759"/>
      <path id="Path_46" data-name="Path 46" d="M474.086,722.339v4.109a28.736,28.736,0,0,1,3.077-1.655,26.921,26.921,0,0,1,3.407-1.3,28.351,28.351,0,0,1,3.556-.849,21.433,21.433,0,0,1,3.528-.3,18.561,18.561,0,0,1,4.706.582,10.723,10.723,0,0,1,3.9,1.883,8.988,8.988,0,0,1,2.645,3.383,12.036,12.036,0,0,1,.972,5.1v7.982h5.767v4.593H473.937a8.228,8.228,0,0,1-1.747,3.97,11.864,11.864,0,0,1-3.407,2.857,16.719,16.719,0,0,1-4.484,1.71,22.166,22.166,0,0,1-5.036.573,22.808,22.808,0,0,1-5.452-.657,15.718,15.718,0,0,1-4.766-1.993A11.007,11.007,0,0,1,445.667,749a8.336,8.336,0,0,1-1.286-4.654V726.615h5.678V744.35a4.473,4.473,0,0,0,.793,2.637,6.478,6.478,0,0,0,2.093,1.883A10.58,10.58,0,0,0,455.888,750a15.281,15.281,0,0,0,6.723,0,10.379,10.379,0,0,0,2.928-1.129,6.5,6.5,0,0,0,2.077-1.883,4.459,4.459,0,0,0,.794-2.635V722.339Zm0,18.927H494.2v-7.993a7.4,7.4,0,0,0-.524-2.952,5.215,5.215,0,0,0-1.42-1.956,5.591,5.591,0,0,0-2.092-1.092,9.069,9.069,0,0,0-2.509-.34,17.45,17.45,0,0,0-3.124.291,23.474,23.474,0,0,0-3.109.788,19.3,19.3,0,0,0-2.839,1.192,14.287,14.287,0,0,0-2.331,1.5,7.462,7.462,0,0,0-1.582,1.676,3.119,3.119,0,0,0-.584,1.749Zm7.17-25.728a1.925,1.925,0,0,1,.225-.911,2.444,2.444,0,0,1,.629-.754,3.02,3.02,0,0,1,.924-.511,3.575,3.575,0,0,1,2.244,0,3.052,3.052,0,0,1,.925.511,2.4,2.4,0,0,1,.626.754,1.951,1.951,0,0,1,0,1.82,2.218,2.218,0,0,1-.626.741,3.2,3.2,0,0,1-.925.5,3.575,3.575,0,0,1-2.244,0,3.169,3.169,0,0,1-.924-.5,2.258,2.258,0,0,1-.629-.741A1.914,1.914,0,0,1,481.257,715.538Z" transform="translate(205.885 -712.84)" fill="#4f5759"/>
      <path id="Path_47" data-name="Path 47" d="M504.211,740.2H466.827V735.6h11.355a24.209,24.209,0,0,1-2.449-2.669,14.7,14.7,0,0,1-1.938-3.2,13.707,13.707,0,0,1-.8-2.292,9.709,9.709,0,0,1-.283-2.32,8.209,8.209,0,0,1,.657-3.263,6.681,6.681,0,0,1,2.166-2.692,11.421,11.421,0,0,1,3.96-1.82,27.9,27.9,0,0,1,12.193.013,11.427,11.427,0,0,1,3.988,1.844,6.733,6.733,0,0,1,2.166,2.718,8.384,8.384,0,0,1,.657,3.3,9.656,9.656,0,0,1-.267,2.257,15.109,15.109,0,0,1-.72,2.21,13.121,13.121,0,0,1-1.9,3.226,27.814,27.814,0,0,1-2.436,2.692h11.028Zm-25.1-12.052a12.575,12.575,0,0,0,1.385,2.333,18.953,18.953,0,0,0,1.744,2.016,20.937,20.937,0,0,0,1.836,1.639c.6.477,1.147.88,1.626,1.2.474-.322,1.016-.72,1.624-1.189a18.372,18.372,0,0,0,3.5-3.622,10.959,10.959,0,0,0,1.315-2.331,7.418,7.418,0,0,0,.683-2.988,3.231,3.231,0,0,0-.372-1.519,3.313,3.313,0,0,0-1.223-1.252,7.3,7.3,0,0,0-2.236-.851,15.748,15.748,0,0,0-3.415-.314,16.12,16.12,0,0,0-3.4.3,7.094,7.094,0,0,0-2.208.828,3.271,3.271,0,0,0-1.207,1.228,3.148,3.148,0,0,0-.372,1.48,6.069,6.069,0,0,0,.194,1.519A9.555,9.555,0,0,0,479.107,728.146Z" transform="translate(242.221 -707.18)" fill="#4f5759"/>
      <path id="Path_48" data-name="Path 48" d="M495.5,716.669v15.985a6.136,6.136,0,0,1-.736,2.954,7.7,7.7,0,0,1-2,2.391,9.793,9.793,0,0,1-2.954,1.616,10.745,10.745,0,0,1-3.606.6h-6.065v-4.593h6.065a4.2,4.2,0,0,0,1.406-.23,3.781,3.781,0,0,0,1.15-.631,3.008,3.008,0,0,0,.778-.935,2.454,2.454,0,0,0,.283-1.168V716.669Zm-5.824,30.3a1.894,1.894,0,0,1,.225-.911,2.285,2.285,0,0,1,.629-.741,3.179,3.179,0,0,1,.932-.5,3.437,3.437,0,0,1,1.126-.183,3.152,3.152,0,0,1,2.043.681,2.058,2.058,0,0,1,.843,1.652,1.918,1.918,0,0,1-.228.909,2.491,2.491,0,0,1-.615.757,2.888,2.888,0,0,1-.917.508,3.552,3.552,0,0,1-2.252,0,3.09,3.09,0,0,1-.932-.508,2.426,2.426,0,0,1-.629-.757A1.885,1.885,0,0,1,489.678,746.966Z" transform="translate(263.778 -707.194)" fill="#4f5759"/>
    </g>
  </g>
</svg>
