<svg id="Layer_1" data-name="Layer 1" xmlns="http://www.w3.org/2000/svg" viewBox="0 0 188.96 178.69"><defs><style>.cls-1{fill:#666;}.cls-2{fill:#999;}.cls-3{fill:#309255;}</style></defs><path class="cls-1" d="M15.76,121.49a.48.48,0,0,1-.54-.54v-1.13a.47.47,0,0,1,.54-.53H29.42a.47.47,0,0,1,.54.53V121a.48.48,0,0,1-.54.54Zm0,3.71a.48.48,0,0,1-.54-.54v-1.07a.48.48,0,0,1,.54-.54H29.42a.48.48,0,0,1,.54.54v1.07a.48.48,0,0,1-.54.54Z" transform="translate(-11.74 -9.18)"/><path class="cls-1" d="M18.45,129.5A.47.47,0,0,1,19,129h6.46a.47.47,0,0,1,.54.53v26.68a3.1,3.1,0,0,0,.62,2.23,2.68,2.68,0,0,0,2,.62H30a1.81,1.81,0,0,1,1.61.78,4.75,4.75,0,0,1,.54,2.61,4.17,4.17,0,0,1-.51,2.52,2,2,0,0,1-1.64.6H24.7q-3.37,0-4.81-1.65t-1.44-5.13Z" transform="translate(-11.74 -9.18)"/><path class="cls-1" d="M30.06,165.54a1.8,1.8,0,0,1-1.53-.62,4.41,4.41,0,0,1-.46-2.4,6.24,6.24,0,0,1,.43-2.69,1.62,1.62,0,0,1,1.56-.8H37a1.81,1.81,0,0,1,1.61.78,4.6,4.6,0,0,1,.54,2.55,4.31,4.31,0,0,1-.51,2.58,2,2,0,0,1-1.64.6Z" transform="translate(-11.74 -9.18)"/><path class="cls-1" d="M37,165.54a1.77,1.77,0,0,1-1.53-.62,4.32,4.32,0,0,1-.46-2.4,6.09,6.09,0,0,1,.43-2.69A1.62,1.62,0,0,1,37,159h6.94a1.82,1.82,0,0,1,1.61.78,4.6,4.6,0,0,1,.54,2.55,4.31,4.31,0,0,1-.51,2.58,2,2,0,0,1-1.64.6Z" transform="translate(-11.74 -9.18)"/><path class="cls-1" d="M43.94,165.54a1.77,1.77,0,0,1-1.53-.62,4.32,4.32,0,0,1-.46-2.4,6.09,6.09,0,0,1,.43-2.69,1.62,1.62,0,0,1,1.56-.8h6.94a1.83,1.83,0,0,1,1.61.78,4.6,4.6,0,0,1,.54,2.55,4.31,4.31,0,0,1-.51,2.58,2.06,2.06,0,0,1-1.64.6Z" transform="translate(-11.74 -9.18)"/><path class="cls-1" d="M50.88,165.54a1.81,1.81,0,0,1-1.54-.62,4.43,4.43,0,0,1-.45-2.4,6.09,6.09,0,0,1,.43-2.69,1.61,1.61,0,0,1,1.56-.8h6.93a1.84,1.84,0,0,1,1.62.78,4.7,4.7,0,0,1,.53,2.55,4.31,4.31,0,0,1-.51,2.58,2,2,0,0,1-1.64.6Z" transform="translate(-11.74 -9.18)"/><path class="cls-1" d="M57.81,165.54a1.79,1.79,0,0,1-1.53-.62,4.41,4.41,0,0,1-.46-2.4,6.24,6.24,0,0,1,.43-2.69,1.62,1.62,0,0,1,1.56-.8h6.94a1.82,1.82,0,0,1,1.61.78,4.6,4.6,0,0,1,.54,2.55,4.31,4.31,0,0,1-.51,2.58,2,2,0,0,1-1.64.6Z" transform="translate(-11.74 -9.18)"/><path class="cls-1" d="M64.75,165.54a1.77,1.77,0,0,1-1.53-.62,4.32,4.32,0,0,1-.46-2.4,6.09,6.09,0,0,1,.43-2.69,1.62,1.62,0,0,1,1.56-.8h6.94a1.83,1.83,0,0,1,1.61.78,4.6,4.6,0,0,1,.54,2.55,4.31,4.31,0,0,1-.51,2.58,2,2,0,0,1-1.64.6Z" transform="translate(-11.74 -9.18)"/><path class="cls-1" d="M71.69,165.54a1.81,1.81,0,0,1-1.54-.62,4.43,4.43,0,0,1-.45-2.4,6.09,6.09,0,0,1,.43-2.69,1.61,1.61,0,0,1,1.56-.8h6.93a1.84,1.84,0,0,1,1.62.78,4.6,4.6,0,0,1,.54,2.55,4.29,4.29,0,0,1-.52,2.58,2,2,0,0,1-1.64.6Z" transform="translate(-11.74 -9.18)"/><path class="cls-1" d="M78.62,165.54a1.8,1.8,0,0,1-1.53-.62,4.41,4.41,0,0,1-.46-2.4,6.24,6.24,0,0,1,.43-2.69,1.62,1.62,0,0,1,1.56-.8h6.94a1.84,1.84,0,0,1,1.62.78,4.7,4.7,0,0,1,.53,2.55,4.31,4.31,0,0,1-.51,2.58,2,2,0,0,1-1.64.6Z" transform="translate(-11.74 -9.18)"/><path class="cls-1" d="M85.56,165.54a1.77,1.77,0,0,1-1.53-.62,4.32,4.32,0,0,1-.46-2.4,6.24,6.24,0,0,1,.43-2.69,1.62,1.62,0,0,1,1.56-.8H92.5a1.82,1.82,0,0,1,1.61.78,4.6,4.6,0,0,1,.54,2.55,4.31,4.31,0,0,1-.51,2.58,2,2,0,0,1-1.64.6Z" transform="translate(-11.74 -9.18)"/><path class="cls-1" d="M107.93,142a23,23,0,0,1,5.68.62,11.52,11.52,0,0,1,4,1.75,7,7,0,0,1,2.29,2.66,7.66,7.66,0,0,1,.72,3.31,8,8,0,0,1-.46,2.74,9.77,9.77,0,0,1-1.21,2.39,11.62,11.62,0,0,1-1.69,2,17.44,17.44,0,0,1-1.86,1.53,12.1,12.1,0,0,0,1.21.06h6.92a1.73,1.73,0,0,1,1.55.72,4.54,4.54,0,0,1,.49,2.45,4.33,4.33,0,0,1-.57,2.66,1.83,1.83,0,0,1-1.47.68h-8.56a19,19,0,0,1-3.68-.35,10.25,10.25,0,0,1-3.31-1.32,12.57,12.57,0,0,1-3.76,1.32,21.11,21.11,0,0,1-3.55.35H92.5a1.88,1.88,0,0,1-1.56-.6,4.38,4.38,0,0,1-.48-2.52,6.27,6.27,0,0,1,.4-2.45A1.59,1.59,0,0,1,92.5,159h5.65c.6,0,1.26,0,2-.06a9,9,0,0,0,2-.32,11.26,11.26,0,0,0-2.42-4.06,23.59,23.59,0,0,0-3.66-3.2,1.54,1.54,0,0,1-.59-.78,3.82,3.82,0,0,1-.16-1.26v-3.5c0-.46.37-.92,1.12-1.37a14.11,14.11,0,0,1,2.94-1.24,28.2,28.2,0,0,1,4.06-.91A29.79,29.79,0,0,1,107.93,142Zm.59,15.76a10.88,10.88,0,0,0,3-2.64,5.25,5.25,0,0,0,1.21-3.28,2.79,2.79,0,0,0-1.26-2.53,6.64,6.64,0,0,0-3.53-.8,13,13,0,0,0-3.22.35,8.81,8.81,0,0,0-1.89.62,13.26,13.26,0,0,1,3.66,3.73A15.17,15.17,0,0,1,108.52,157.74Z" transform="translate(-11.74 -9.18)"/><path class="cls-1" d="M123.47,165.54a1.8,1.8,0,0,1-1.53-.62,4.41,4.41,0,0,1-.46-2.4,6.06,6.06,0,0,1,.44-2.69,1.6,1.6,0,0,1,1.55-.8h6.94a1.84,1.84,0,0,1,1.62.78,4.7,4.7,0,0,1,.53,2.55,4.31,4.31,0,0,1-.51,2.58,2,2,0,0,1-1.64.6Z" transform="translate(-11.74 -9.18)"/><path class="cls-1" d="M130.41,165.54a1.77,1.77,0,0,1-1.53-.62,4.32,4.32,0,0,1-.46-2.4,6.24,6.24,0,0,1,.43-2.69,1.62,1.62,0,0,1,1.56-.8h6.94a1.82,1.82,0,0,1,1.61.78,4.6,4.6,0,0,1,.54,2.55,4.31,4.31,0,0,1-.51,2.58,2,2,0,0,1-1.64.6Z" transform="translate(-11.74 -9.18)"/><path class="cls-1" d="M137.35,165.54a1.77,1.77,0,0,1-1.53-.62,4.32,4.32,0,0,1-.46-2.4,6.09,6.09,0,0,1,.43-2.69,1.62,1.62,0,0,1,1.56-.8h6.94a1.83,1.83,0,0,1,1.61.78,4.6,4.6,0,0,1,.54,2.55,4.31,4.31,0,0,1-.51,2.58,2,2,0,0,1-1.64.6Z" transform="translate(-11.74 -9.18)"/><path class="cls-1" d="M144.29,165.54a1.81,1.81,0,0,1-1.54-.62,4.43,4.43,0,0,1-.45-2.4,6.09,6.09,0,0,1,.43-2.69,1.61,1.61,0,0,1,1.56-.8h6.93a1.84,1.84,0,0,1,1.62.78,4.7,4.7,0,0,1,.53,2.55,4.31,4.31,0,0,1-.51,2.58,2,2,0,0,1-1.64.6Z" transform="translate(-11.74 -9.18)"/><path class="cls-1" d="M151.22,165.54a1.8,1.8,0,0,1-1.53-.62,4.41,4.41,0,0,1-.46-2.4,6.24,6.24,0,0,1,.43-2.69,1.62,1.62,0,0,1,1.56-.8h6.94a1.81,1.81,0,0,1,1.61.78,4.6,4.6,0,0,1,.54,2.55,4.31,4.31,0,0,1-.51,2.58,2,2,0,0,1-1.64.6Z" transform="translate(-11.74 -9.18)"/><path class="cls-1" d="M158.16,165.54a1.77,1.77,0,0,1-1.53-.62,4.32,4.32,0,0,1-.46-2.4,6.09,6.09,0,0,1,.43-2.69,1.62,1.62,0,0,1,1.56-.8h6.94a1.83,1.83,0,0,1,1.61.78,4.6,4.6,0,0,1,.54,2.55,4.31,4.31,0,0,1-.51,2.58,2,2,0,0,1-1.64.6Z" transform="translate(-11.74 -9.18)"/><path class="cls-1" d="M165.1,165.54a1.77,1.77,0,0,1-1.53-.62,4.32,4.32,0,0,1-.46-2.4,6.09,6.09,0,0,1,.43-2.69,1.62,1.62,0,0,1,1.56-.8H172a1.83,1.83,0,0,1,1.61.78,4.6,4.6,0,0,1,.54,2.55,4.22,4.22,0,0,1-.52,2.58,2,2,0,0,1-1.63.6Z" transform="translate(-11.74 -9.18)"/><path class="cls-1" d="M188.79,165.91a18.23,18.23,0,0,1-5.26-.72,8.55,8.55,0,0,1-4-2.56,5.45,5.45,0,0,1-1.76,1.64,8.76,8.76,0,0,1-2,.86,8.59,8.59,0,0,1-2,.35c-.65,0-1.22.06-1.72.06a1.94,1.94,0,0,1-1.62-.7,4.23,4.23,0,0,1-.54-2.48,4.83,4.83,0,0,1,.51-2.61A1.89,1.89,0,0,1,172,159h1.55a3.09,3.09,0,0,0,2.21-1c.68-.68,1.06-2,1.13-3.82v-1.08a12.53,12.53,0,0,1,1-5.32,9,9,0,0,1,2.64-3.44,10,10,0,0,1,3.77-1.83,18,18,0,0,1,4.45-.54,17.13,17.13,0,0,1,4.52.59,9.82,9.82,0,0,1,3.8,2,9.64,9.64,0,0,1,2.62,3.74,15.4,15.4,0,0,1,1,5.89,14.83,14.83,0,0,1-.92,5.54,9.37,9.37,0,0,1-2.5,3.63,9.48,9.48,0,0,1-3.78,2A18.08,18.08,0,0,1,188.79,165.91Zm0-17.42c-3,0-4.46,1.81-4.46,5.43,0,2,.37,3.47,1.13,4.27a4.32,4.32,0,0,0,3.33,1.21,4.2,4.2,0,0,0,3.33-1.21c.72-.8,1.08-2.23,1.08-4.27Q193.17,148.49,188.76,148.49Z" transform="translate(-11.74 -9.18)"/><path class="cls-2" d="M30,185.71H27.77a2.9,2.9,0,0,1-1,.56,3.36,3.36,0,0,1-1.2.2,3.58,3.58,0,0,1-1.19-.2,3.42,3.42,0,0,1-1-.56,2.64,2.64,0,0,1-.66-.8,2.08,2.08,0,0,1-.24-1v-.11A2,2,0,0,0,22,184a1.1,1.1,0,0,0-.35.22.87.87,0,0,0-.2.31,1,1,0,0,0-.06.36v3H20.05v-3a2.21,2.21,0,0,1,.14-.78,1.67,1.67,0,0,1,.44-.65,2.22,2.22,0,0,1,.77-.46,4,4,0,0,1,1.14-.2v-.05a2,2,0,0,1,.24-1,2.68,2.68,0,0,1,.66-.81,3.4,3.4,0,0,1,1-.55,3.35,3.35,0,0,1,1.19-.21,3.62,3.62,0,0,1,1.19.2,3.21,3.21,0,0,1,1,.55,2.42,2.42,0,0,1,.66.8,2.09,2.09,0,0,1,.24,1v1.23a2,2,0,0,1-.12.7H30Zm-2.69-3a1.19,1.19,0,0,0-.14-.56,1.34,1.34,0,0,0-.36-.46,1.91,1.91,0,0,0-.54-.31,1.93,1.93,0,0,0-1.34,0,2,2,0,0,0-.55.32,1.34,1.34,0,0,0-.36.46,1.15,1.15,0,0,0-.14.55V184a1.18,1.18,0,0,0,.14.55,1.34,1.34,0,0,0,.36.46,1.77,1.77,0,0,0,.55.32,2.1,2.1,0,0,0,1.34,0,1.72,1.72,0,0,0,.54-.32,1.34,1.34,0,0,0,.36-.46,1.19,1.19,0,0,0,.14-.56Z" transform="translate(-11.74 -9.18)"/><path class="cls-2" d="M30.77,183.46a1.47,1.47,0,0,1,.13-.62,1.58,1.58,0,0,1,.35-.53,2.17,2.17,0,0,1,.54-.4,2.36,2.36,0,0,1,.66-.24,2.16,2.16,0,0,1,.59-.62,3.83,3.83,0,0,1,.84-.48,5.18,5.18,0,0,1,1-.3,5.33,5.33,0,0,1,1.05-.1,4.81,4.81,0,0,1,1.2.14,3.37,3.37,0,0,1,1,.45,2.34,2.34,0,0,1,1,2V184a1.36,1.36,0,0,1-.18.68,1.68,1.68,0,0,1-.47.56,2.23,2.23,0,0,1-.7.37,2.41,2.41,0,0,1-.85.14H29.41v-1.08h1.36Zm1.34,1.16H33.8v-1.17a.73.73,0,0,0-.07-.29.69.69,0,0,0-.18-.24.72.72,0,0,0-.27-.16,1.11,1.11,0,0,0-.66,0,1.2,1.2,0,0,0-.27.16.94.94,0,0,0-.18.25.73.73,0,0,0-.06.3Zm3,0h1.78a1.27,1.27,0,0,0,.34,0,1.25,1.25,0,0,0,.28-.15.55.55,0,0,0,.18-.22.45.45,0,0,0,.07-.25v-1.21a1.35,1.35,0,0,0-.16-.69,1.33,1.33,0,0,0-.41-.47,1.91,1.91,0,0,0-.6-.26,3.19,3.19,0,0,0-.7-.08,3.48,3.48,0,0,0-.55,0,4.52,4.52,0,0,0-.53.11,3.41,3.41,0,0,0-.48.18,1.53,1.53,0,0,0-.39.25,2,2,0,0,1,.47.28,1.78,1.78,0,0,1,.62.83,1.7,1.7,0,0,1,.08.51Z" transform="translate(-11.74 -9.18)"/><path class="cls-2" d="M41.89,180.17a10.5,10.5,0,0,1,2.09.17,4.36,4.36,0,0,1,1.42.49,2.14,2.14,0,0,1,.8.81,2.21,2.21,0,0,1,.26,1.1v1.89h1.36v1.08H41.51v-1.08h3.62v-1.89a1.17,1.17,0,0,0-.19-.64,1.44,1.44,0,0,0-.57-.47,3.75,3.75,0,0,0-1-.28,9,9,0,0,0-1.48-.1Z" transform="translate(-11.74 -9.18)"/><path class="cls-2" d="M50.84,180.17v4.46H52.2v1.08h-5v-1.08H49.5v-4.46ZM49,178.57a.39.39,0,0,1,.06-.21.49.49,0,0,1,.14-.18.94.94,0,0,1,.22-.12.77.77,0,0,1,.27,0,.75.75,0,0,1,.26,0,.72.72,0,0,1,.21.12.52.52,0,0,1,.15.18.5.5,0,0,1,.05.21.47.47,0,0,1-.2.39.71.71,0,0,1-.47.16.77.77,0,0,1-.27,0,.94.94,0,0,1-.22-.12.55.55,0,0,1-.14-.17A.43.43,0,0,1,49,178.57Z" transform="translate(-11.74 -9.18)"/><path class="cls-2" d="M58.26,185.71H51.61v-1.08H53v-2a2.06,2.06,0,0,1,.24-1,2.48,2.48,0,0,1,.65-.79,3.11,3.11,0,0,1,1-.52,3.58,3.58,0,0,1,1.19-.19,4,4,0,0,1,1.52.3l-.53,1c-.2-.07-.38-.12-.54-.16a1.93,1.93,0,0,0-.45-.05,2.09,2.09,0,0,0-.67.1,1.78,1.78,0,0,0-.54.3,1.37,1.37,0,0,0-.36.44,1.18,1.18,0,0,0-.14.55v2h4Z" transform="translate(-11.74 -9.18)"/><path class="cls-2" d="M67.74,178v5.92a.54.54,0,0,0,.07.27.73.73,0,0,0,.18.22,1.17,1.17,0,0,0,.27.15,1.14,1.14,0,0,0,.33,0h.63v1.08h-.63a2.66,2.66,0,0,1-.85-.14,2.19,2.19,0,0,1-.69-.38,2,2,0,0,1-.48-.56,1.53,1.53,0,0,1-.17-.69V178Z" transform="translate(-11.74 -9.18)"/><path class="cls-2" d="M68.62,184.63H70.1a1.89,1.89,0,0,1-.09-.34,2.19,2.19,0,0,1,0-.36V182.7a2.09,2.09,0,0,1,.24-1,2.42,2.42,0,0,1,.66-.8,3.4,3.4,0,0,1,1-.55,3.54,3.54,0,0,1,1.19-.2,3.42,3.42,0,0,1,2.15.76,2.68,2.68,0,0,1,.66.81,2,2,0,0,1,.24,1V184a2,2,0,0,1-.24,1,2.63,2.63,0,0,1-.65.8,3.14,3.14,0,0,1-1,.56,3.52,3.52,0,0,1-1.18.2,3.38,3.38,0,0,1-1.21-.2,3,3,0,0,1-1-.56H68.62ZM73,181.25a1.9,1.9,0,0,0-1.22.43,1.37,1.37,0,0,0-.37.46,1.18,1.18,0,0,0-.13.56v1.24a1.18,1.18,0,0,0,.13.56,1.37,1.37,0,0,0,.37.46,1.72,1.72,0,0,0,.54.32,2.15,2.15,0,0,0,.68.11,2.08,2.08,0,0,0,.66-.11,1.77,1.77,0,0,0,.55-.32,1.37,1.37,0,0,0,.37-.46,1.17,1.17,0,0,0,.13-.55V182.7a1.14,1.14,0,0,0-.13-.55,1.37,1.37,0,0,0-.37-.46,2,2,0,0,0-.55-.32A1.84,1.84,0,0,0,73,181.25Z" transform="translate(-11.74 -9.18)"/><path class="cls-2" d="M92.58,185.71H91.19a2.05,2.05,0,0,1-.41.94,2.82,2.82,0,0,1-.81.68,4.25,4.25,0,0,1-1,.41,5.29,5.29,0,0,1-1.19.13,5.53,5.53,0,0,1-1.28-.15,3.78,3.78,0,0,1-1.12-.47,2.59,2.59,0,0,1-.79-.79,2.05,2.05,0,0,1-.3-1.11v-4.16h1.33v4.16a1,1,0,0,0,.19.63,1.52,1.52,0,0,0,.49.45,2.37,2.37,0,0,0,.69.27,3.51,3.51,0,0,0,1.58,0,2.37,2.37,0,0,0,.69-.27,1.52,1.52,0,0,0,.49-.45,1.12,1.12,0,0,0,.19-.63V178h1.33v6.61h1.36Z" transform="translate(-11.74 -9.18)"/><path class="cls-2" d="M98,178.7l-2.06,1.49.32,0h.32a7.25,7.25,0,0,1,.93.05,5,5,0,0,1,.89.16,4.19,4.19,0,0,1,.79.31,2.29,2.29,0,0,1,.62.48,2,2,0,0,1,.42.67,2.59,2.59,0,0,1,.15.91V184a1.46,1.46,0,0,1-.17.68,1.84,1.84,0,0,1-.48.56,2.23,2.23,0,0,1-.7.37,2.37,2.37,0,0,1-.85.14H92v-1.08h6.19a1.27,1.27,0,0,0,.34,0,1.17,1.17,0,0,0,.27-.15.55.55,0,0,0,.18-.22A.45.45,0,0,0,99,184v-1.22a1.23,1.23,0,0,0-.21-.73,1.63,1.63,0,0,0-.57-.46,2.61,2.61,0,0,0-.79-.23,5.26,5.26,0,0,0-.89-.07,7.56,7.56,0,0,0-.83,0c-.28,0-.54.07-.78.12a6.55,6.55,0,0,0-.65.14,4.32,4.32,0,0,0-.44.13l-.61-.9L97,177.94Z" transform="translate(-11.74 -9.18)"/><path class="cls-2" d="M102.78,185.16a.45.45,0,0,1,.2-.39.71.71,0,0,1,.47-.16.77.77,0,0,1,.27,0,.94.94,0,0,1,.22.12.46.46,0,0,1,.14.17.43.43,0,0,1,.06.22.42.42,0,0,1-.06.21.49.49,0,0,1-.14.18.94.94,0,0,1-.22.12.77.77,0,0,1-.27,0,.75.75,0,0,1-.26,0,.72.72,0,0,1-.21-.12.52.52,0,0,1-.15-.18A.54.54,0,0,1,102.78,185.16Z" transform="translate(-11.74 -9.18)"/><path class="cls-2" d="M106.54,185.16a.47.47,0,0,1,.19-.39.71.71,0,0,1,.48-.16.8.8,0,0,1,.27,0,.72.72,0,0,1,.21.12.4.4,0,0,1,.15.17.42.42,0,0,1,0,.22.41.41,0,0,1,0,.21.43.43,0,0,1-.15.18.72.72,0,0,1-.21.12.8.8,0,0,1-.27,0,.75.75,0,0,1-.26,0,.78.78,0,0,1-.22-.12.49.49,0,0,1-.14-.18A.41.41,0,0,1,106.54,185.16Z" transform="translate(-11.74 -9.18)"/><path class="cls-2" d="M120.24,185.71H118a2.9,2.9,0,0,1-1,.56,3.36,3.36,0,0,1-1.2.2,3.58,3.58,0,0,1-1.19-.2,3.42,3.42,0,0,1-1-.56,2.64,2.64,0,0,1-.66-.8,2.07,2.07,0,0,1-.23-1v-.11a2,2,0,0,0-.55.12,1.1,1.1,0,0,0-.35.22.87.87,0,0,0-.2.31,1,1,0,0,0-.06.36v3h-1.34v-3a2.21,2.21,0,0,1,.14-.78,1.67,1.67,0,0,1,.44-.65,2.22,2.22,0,0,1,.77-.46,4,4,0,0,1,1.15-.2v-.05a2,2,0,0,1,.23-1,2.68,2.68,0,0,1,.66-.81,3.4,3.4,0,0,1,1-.55,3.35,3.35,0,0,1,1.19-.21,3.62,3.62,0,0,1,1.19.2,3.21,3.21,0,0,1,1,.55,2.42,2.42,0,0,1,.66.8,2.09,2.09,0,0,1,.24,1v1.23a2,2,0,0,1-.12.7h1.47Zm-2.69-3a1.32,1.32,0,0,0-.13-.56,1.5,1.5,0,0,0-.37-.46,1.91,1.91,0,0,0-.54-.31,1.93,1.93,0,0,0-1.34,0,2,2,0,0,0-.55.32,1.34,1.34,0,0,0-.36.46,1.15,1.15,0,0,0-.14.55V184a1.18,1.18,0,0,0,.14.55,1.34,1.34,0,0,0,.36.46,1.77,1.77,0,0,0,.55.32,2.1,2.1,0,0,0,1.34,0,1.72,1.72,0,0,0,.54-.32,1.5,1.5,0,0,0,.37-.46,1.32,1.32,0,0,0,.13-.56Z" transform="translate(-11.74 -9.18)"/><path class="cls-2" d="M125.66,178.7l-2.06,1.49.32,0h.32a7.4,7.4,0,0,1,.94.05,4.9,4.9,0,0,1,.88.16,3.94,3.94,0,0,1,.79.31,2.29,2.29,0,0,1,.62.48,2,2,0,0,1,.42.67,2.59,2.59,0,0,1,.15.91V184a1.46,1.46,0,0,1-.17.68,1.8,1.8,0,0,1-.47.56,2.34,2.34,0,0,1-.7.37,2.46,2.46,0,0,1-.86.14h-6.19v-1.08h6.19a1.27,1.27,0,0,0,.34,0,1,1,0,0,0,.27-.15.67.67,0,0,0,.19-.22.54.54,0,0,0,.06-.25v-1.22a1.23,1.23,0,0,0-.21-.73,1.59,1.59,0,0,0-.56-.46,2.77,2.77,0,0,0-.8-.23,5.26,5.26,0,0,0-.89-.07,7.69,7.69,0,0,0-.83,0c-.28,0-.54.07-.78.12a6.55,6.55,0,0,0-.65.14,4.32,4.32,0,0,0-.44.13l-.61-.9,3.77-2.84Z" transform="translate(-11.74 -9.18)"/><path class="cls-2" d="M130.82,180.17a10.5,10.5,0,0,1,2.09.17,4.36,4.36,0,0,1,1.42.49,2.24,2.24,0,0,1,.81.81,2.32,2.32,0,0,1,.25,1.1v1.89h1.36v1.08h-6.31v-1.08h3.62v-1.89a1.1,1.1,0,0,0-.19-.64,1.44,1.44,0,0,0-.57-.47,3.65,3.65,0,0,0-1-.28,9,9,0,0,0-1.48-.1Z" transform="translate(-11.74 -9.18)"/><path class="cls-2" d="M139.77,180.17v4.46h1.37v1.08h-5v-1.08h2.28v-4.46Zm-1.89-1.6a.39.39,0,0,1,.06-.21.43.43,0,0,1,.15-.18.72.72,0,0,1,.21-.12.8.8,0,0,1,.27,0,.75.75,0,0,1,.26,0,.94.94,0,0,1,.22.12.62.62,0,0,1,.14.18.38.38,0,0,1,.05.21.49.49,0,0,1-.19.39.75.75,0,0,1-.48.16.8.8,0,0,1-.27,0,.72.72,0,0,1-.21-.12.47.47,0,0,1-.15-.17A.43.43,0,0,1,137.88,178.57Z" transform="translate(-11.74 -9.18)"/><path class="cls-2" d="M147.19,185.71h-6.65v-1.08h1.36v-2a2.17,2.17,0,0,1,.23-1,2.39,2.39,0,0,1,.66-.79,3,3,0,0,1,1-.52,3.58,3.58,0,0,1,1.19-.19,4,4,0,0,1,1.52.3l-.53,1a5.21,5.21,0,0,0-.54-.16,1.93,1.93,0,0,0-.45-.05,2.09,2.09,0,0,0-.67.1,1.78,1.78,0,0,0-.54.3,1.51,1.51,0,0,0-.36.44,1.18,1.18,0,0,0-.14.55v2h4Z" transform="translate(-11.74 -9.18)"/><path class="cls-2" d="M156.67,178v5.92a.54.54,0,0,0,.07.27.73.73,0,0,0,.18.22,1.17,1.17,0,0,0,.27.15,1.14,1.14,0,0,0,.33,0h.63v1.08h-.63a2.66,2.66,0,0,1-.85-.14,2.31,2.31,0,0,1-.69-.38,2,2,0,0,1-.48-.56,1.53,1.53,0,0,1-.17-.69V178Z" transform="translate(-11.74 -9.18)"/><path class="cls-2" d="M157.56,184.63H159a1.89,1.89,0,0,1-.09-.34,2.19,2.19,0,0,1,0-.36V182.7a2.09,2.09,0,0,1,.24-1,2.42,2.42,0,0,1,.66-.8,3.4,3.4,0,0,1,1-.55,3.54,3.54,0,0,1,1.19-.2,3.29,3.29,0,0,1,1.18.21,3.46,3.46,0,0,1,1,.55,2.8,2.8,0,0,1,.65.81,2,2,0,0,1,.24,1V184a2,2,0,0,1-.24,1,2.63,2.63,0,0,1-.65.8,3.2,3.2,0,0,1-1,.56,3.62,3.62,0,0,1-1.19.2,3.42,3.42,0,0,1-1.21-.2,3,3,0,0,1-1-.56h-2.24Zm4.41-3.38a1.81,1.81,0,0,0-.67.12,2,2,0,0,0-.55.31,1.5,1.5,0,0,0-.37.46,1.32,1.32,0,0,0-.13.56v1.24a1.32,1.32,0,0,0,.13.56,1.5,1.5,0,0,0,.37.46,1.77,1.77,0,0,0,.55.32,2,2,0,0,0,.67.11,2.08,2.08,0,0,0,.66-.11,1.77,1.77,0,0,0,.55-.32,1.37,1.37,0,0,0,.37-.46,1.18,1.18,0,0,0,.14-.55V182.7a1.15,1.15,0,0,0-.14-.55,1.37,1.37,0,0,0-.37-.46,2,2,0,0,0-.55-.32A1.84,1.84,0,0,0,162,181.25Z" transform="translate(-11.74 -9.18)"/><path class="cls-2" d="M180.16,180.17v1a7.19,7.19,0,0,1,.73-.39,6.33,6.33,0,0,1,.8-.31,7.35,7.35,0,0,1,.84-.2,5.81,5.81,0,0,1,.83-.07,4.36,4.36,0,0,1,1.1.14,2.54,2.54,0,0,1,.92.44,2.16,2.16,0,0,1,.62.8,2.73,2.73,0,0,1,.23,1.2v1.88h1.36v1.08h-7.46a2,2,0,0,1-.42.94,2.62,2.62,0,0,1-.8.67,3.88,3.88,0,0,1-1,.4,5.3,5.3,0,0,1-1.19.14,5.47,5.47,0,0,1-1.28-.16,3.69,3.69,0,0,1-1.13-.47,2.67,2.67,0,0,1-.79-.78,2,2,0,0,1-.3-1.09v-4.18h1.33v4.18a1.11,1.11,0,0,0,.19.62,1.61,1.61,0,0,0,.49.44,2.55,2.55,0,0,0,.7.27,3.42,3.42,0,0,0,.79.09,3.48,3.48,0,0,0,.79-.09,2.37,2.37,0,0,0,.69-.27,1.74,1.74,0,0,0,.49-.44,1.1,1.1,0,0,0,.18-.62v-5.19Zm0,4.46h4.74v-1.88a1.62,1.62,0,0,0-.13-.7,1.21,1.21,0,0,0-.33-.46,1.44,1.44,0,0,0-.49-.26,2.33,2.33,0,0,0-.59-.08,4.74,4.74,0,0,0-.74.07,5.57,5.57,0,0,0-.73.19,4.48,4.48,0,0,0-.67.28,4,4,0,0,0-.55.35,1.71,1.71,0,0,0-.37.4.72.72,0,0,0-.14.41Zm1.69-6.06a.5.5,0,0,1,.05-.21.65.65,0,0,1,.15-.18.78.78,0,0,1,.22-.12.75.75,0,0,1,.26,0,.8.8,0,0,1,.27,0,.72.72,0,0,1,.21.12.43.43,0,0,1,.15.18.38.38,0,0,1,.05.21.42.42,0,0,1-.05.22.47.47,0,0,1-.15.17.72.72,0,0,1-.21.12.8.8,0,0,1-.27,0,.75.75,0,0,1-.26,0,.78.78,0,0,1-.22-.12.8.8,0,0,1-.15-.17A.54.54,0,0,1,181.85,178.57Z" transform="translate(-11.74 -9.18)"/><path class="cls-2" d="M195.81,185.71H187v-1.08h2.67a5.78,5.78,0,0,1-.57-.63,3.22,3.22,0,0,1-.46-.75,3.86,3.86,0,0,1-.19-.54,2.59,2.59,0,0,1-.07-.55,2,2,0,0,1,.16-.77,1.52,1.52,0,0,1,.51-.63,2.87,2.87,0,0,1,.93-.43,5.76,5.76,0,0,1,1.43-.16,5.85,5.85,0,0,1,1.44.16,2.57,2.57,0,0,1,.94.44,1.49,1.49,0,0,1,.51.64,1.83,1.83,0,0,1,.16.77,2,2,0,0,1-.07.54,3.84,3.84,0,0,1-.16.52,3.9,3.9,0,0,1-.45.76,7.1,7.1,0,0,1-.58.63h2.6Zm-5.91-2.84a2.77,2.77,0,0,0,.33.55,4.72,4.72,0,0,0,.41.48,4.88,4.88,0,0,0,.43.38c.14.12.27.21.38.29l.38-.28a3.78,3.78,0,0,0,.43-.38,4.84,4.84,0,0,0,.4-.48,2.29,2.29,0,0,0,.31-.55,1.65,1.65,0,0,0,.16-.7.8.8,0,0,0-.09-.36.73.73,0,0,0-.29-.29,1.71,1.71,0,0,0-.52-.2,4.09,4.09,0,0,0-1.61,0,1.57,1.57,0,0,0-.52.19.77.77,0,0,0-.28.29.73.73,0,0,0-.09.35,1.49,1.49,0,0,0,.05.36A2.42,2.42,0,0,0,189.9,182.87Z" transform="translate(-11.74 -9.18)"/><path class="cls-2" d="M198.84,180.17v3.76a1.43,1.43,0,0,1-.18.7,1.78,1.78,0,0,1-.47.56,2.19,2.19,0,0,1-.69.38,2.66,2.66,0,0,1-.85.14h-1.43v-1.08h1.43a1.14,1.14,0,0,0,.33,0,1.17,1.17,0,0,0,.27-.15.73.73,0,0,0,.18-.22.55.55,0,0,0,.07-.28v-3.76Zm-1.38,7.13a.37.37,0,0,1,.06-.21.43.43,0,0,1,.15-.18.66.66,0,0,1,.22-.12,1.09,1.09,0,0,1,.26,0,.77.77,0,0,1,.48.16.5.5,0,0,1,.2.39.54.54,0,0,1-.05.22.8.8,0,0,1-.15.17.45.45,0,0,1-.21.12.81.81,0,0,1-.27.05.75.75,0,0,1-.26-.05.43.43,0,0,1-.22-.12.47.47,0,0,1-.15-.17A.43.43,0,0,1,197.46,187.3Z" transform="translate(-11.74 -9.18)"/><path class="cls-3" d="M22.31,32.37c2.55,7,10.9,11.15,18.08,9.43,7.72-1.31,13.94-8.89,13.25-16.8C53.76,21.26,52,17.9,50,14.89,43.23,6.64,28.51,7.38,23.21,16.8c-3,4.29-2.62,9.71-2,14.65Z" transform="translate(-11.74 -9.18)"/><path class="cls-3" d="M94.59,59.18l.22.43c3,0,6.15.41,9-.91A13.84,13.84,0,0,0,111.64,42,12.93,12.93,0,0,0,106,34.37c-6.43-4.24-16.09-2-19.68,4.9C82.12,46.62,86.29,57.1,94.59,59.18Z" transform="translate(-11.74 -9.18)"/><path class="cls-3" d="M122.6,110.67c-.14-6.93.17-13.86-.17-20.77-.56-9.16-6.31-18.05-15-21.34l-.09-.55-1.76.06c-8.08-3.31-18.14-1-24.34,5.06A23.87,23.87,0,0,0,73.28,90.8c-.07,10.7.14,21.39-.08,32.08.12,2.35-1.55,4.08-3.06,5.63q-2.79.18-5.55.39c-1.67-1.57-3.88-3.2-3.84-5.75-.3-11.29.31-22.62-.32-33.91.66-4.26,0-8.64.29-12.95-.09-1.64.2-3.38-.37-5a17.06,17.06,0,0,0-2.79-8.67C56,59.63,53.49,57.27,51,55l-.35,0a23.77,23.77,0,0,0-17.57-4.67C21.64,51.69,12.07,62,11.84,73.49c-.07,9.38,0,18.76-.09,28.14a12.3,12.3,0,0,0,.65,4.74,27.49,27.49,0,0,0,2,3.79l1.55.76c2.41,1.88,5.41,1.75,8.26,1.21a12.15,12.15,0,0,0,5.48-5.95c1-11.16.05-22.32.41-33.48,2.06-5.64,10.77-5.44,12.4.42,0,7.17-.17,14.37.14,21.54-.24,10.46-.14,21-.28,31.42l.7-1.22c-.28,12.84,12.77,23.27,25.21,22.3,12-.25,22.94-10.85,23.2-22.94.14-10.56,0-21.12.08-31.68.1-2.52.58-5.62,3.16-6.8,3.18-2.27,7.75,0,9,3.31.78,9-.3,18,.55,27,1.19,6.14,9.31,9.1,14.21,5.28C122.28,119.18,122.65,114.49,122.6,110.67Z" transform="translate(-11.74 -9.18)"/></svg>